<svg width="32" height="36" viewBox="0 0 32 36" fill="none" xmlns="http://www.w3.org/2000/svg">
<g filter="url(#filter0_d_2844_74)">
<path fill-rule="evenodd" clip-rule="evenodd" d="M21.9045 6.5626C21.9045 7.99616 21.2548 9.42972 20.3377 10.4641C19.363 11.6074 17.6816 12.4602 16.344 12.4604C16.1911 12.4604 16.0381 12.4421 15.9427 12.424C15.9236 12.3515 15.8853 12.1336 15.8853 11.9159C15.8853 10.4641 16.6688 9.03052 17.5095 8.12319C18.5797 6.9437 20.3567 6.05447 21.8472 6C21.8855 6.1634 21.9045 6.363 21.9045 6.5626ZM27.1612 15.5928C27.1983 15.5696 27.2238 15.5538 27.2357 15.545C25.2485 12.8413 22.2292 12.7685 21.3883 12.7684C20.1036 12.7684 18.9536 13.2013 17.9868 13.5652C17.2856 13.8291 16.6809 14.0568 16.1909 14.0568C15.6504 14.0568 15.0315 13.8193 14.3408 13.5542C13.4688 13.2195 12.4824 12.8409 11.3948 12.8409C7.72618 12.8409 4 15.7263 4 21.1703C4 24.5636 5.37576 28.1385 7.07641 30.4432C8.54764 32.403 9.82794 33.9999 11.6623 33.9999C12.5323 33.9999 13.1702 33.7428 13.8409 33.4724C14.5846 33.1727 15.3686 32.8566 16.5541 32.8566C17.7512 32.8566 18.4668 33.1533 19.157 33.4395C19.8 33.7061 20.4209 33.9636 21.3885 33.9636C23.3948 33.9636 24.7134 32.2397 25.9745 30.5157C27.3885 28.556 27.9809 26.6324 28 26.5417C27.8853 26.5055 24.0446 25.0356 24.0446 20.88C24.0446 17.5353 26.6609 15.9046 27.1612 15.5928Z" fill="#101113"/>
</g>
<defs>
<filter id="filter0_d_2844_74" x="0" y="0" width="32" height="35.9999" filterUnits="userSpaceOnUse" color-interpolation-filters="sRGB">
<feFlood flood-opacity="0" result="BackgroundImageFix"/>
<feColorMatrix in="SourceAlpha" type="matrix" values="0 0 0 0 0 0 0 0 0 0 0 0 0 0 0 0 0 0 127 0" result="hardAlpha"/>
<feOffset dy="-2"/>
<feGaussianBlur stdDeviation="2"/>
<feColorMatrix type="matrix" values="0 0 0 0 1 0 0 0 0 1 0 0 0 0 1 0 0 0 0.5 0"/>
<feBlend mode="normal" in2="BackgroundImageFix" result="effect1_dropShadow_2844_74"/>
<feBlend mode="normal" in="SourceGraphic" in2="effect1_dropShadow_2844_74" result="shape"/>
</filter>
</defs>
</svg>
