<svg width="26" height="25" viewBox="0 0 26 25" fill="none" xmlns="http://www.w3.org/2000/svg">
<path d="M12.9997 19.7916V15.625L9.87467 12.5L15.083 8.33329L17.1663 11.4583H20.2913M8.83301 18.75C8.83301 20.4759 7.4339 21.875 5.70801 21.875C3.98212 21.875 2.58301 20.4759 2.58301 18.75C2.58301 17.0241 3.98212 15.625 5.70801 15.625C7.4339 15.625 8.83301 17.0241 8.83301 18.75ZM23.4163 18.75C23.4163 20.4759 22.0172 21.875 20.2913 21.875C18.5655 21.875 17.1663 20.4759 17.1663 18.75C17.1663 17.0241 18.5655 15.625 20.2913 15.625C22.0172 15.625 23.4163 17.0241 23.4163 18.75ZM19.2497 5.20829C19.2497 5.78359 18.7833 6.24996 18.208 6.24996C17.6327 6.24996 17.1663 5.78359 17.1663 5.20829C17.1663 4.633 17.6327 4.16663 18.208 4.16663C18.7833 4.16663 19.2497 4.633 19.2497 5.20829Z" stroke="#808B9A" stroke-width="1.5" stroke-linecap="round" stroke-linejoin="round"/>
</svg>
