<svg width="36" height="36" viewBox="0 0 36 36" fill="none" xmlns="http://www.w3.org/2000/svg">
<rect width="36" height="36" rx="8" fill="#DCF0FF"/>
<path d="M18.0003 23.8333V20.4999L15.5003 17.9999L19.667 14.6666L21.3337 17.1666H23.8337M14.667 22.9999C14.667 24.3806 13.5477 25.4999 12.167 25.4999C10.7863 25.4999 9.66699 24.3806 9.66699 22.9999C9.66699 21.6192 10.7863 20.4999 12.167 20.4999C13.5477 20.4999 14.667 21.6192 14.667 22.9999ZM26.3337 22.9999C26.3337 24.3806 25.2144 25.4999 23.8337 25.4999C22.4529 25.4999 21.3337 24.3806 21.3337 22.9999C21.3337 21.6192 22.4529 20.4999 23.8337 20.4999C25.2144 20.4999 26.3337 21.6192 26.3337 22.9999ZM23.0003 12.1666C23.0003 12.6268 22.6272 12.9999 22.167 12.9999C21.7068 12.9999 21.3337 12.6268 21.3337 12.1666C21.3337 11.7063 21.7068 11.3333 22.167 11.3333C22.6272 11.3333 23.0003 11.7063 23.0003 12.1666Z" stroke="#4091CC" stroke-width="1.5" stroke-linecap="round" stroke-linejoin="round"/>
</svg>
