<svg width="20" height="20" viewBox="0 0 20 20" fill="none" xmlns="http://www.w3.org/2000/svg">
<path d="M2.50033 2.5L17.5003 17.5M8.82032 8.82248C8.50759 9.13499 8.33181 9.55894 8.33165 10.0011C8.33149 10.4432 8.50697 10.8672 8.81949 11.18C9.132 11.4927 9.55595 11.6685 9.99806 11.6687C10.4402 11.6688 10.8643 11.4933 11.177 11.1808M7.80283 4.47083C8.51734 4.26643 9.25715 4.16403 10.0003 4.16667C13.3337 4.16667 16.1112 6.11083 18.3337 10C17.6853 11.1342 16.9903 12.1033 16.2478 12.9067M14.4645 14.4575C13.1053 15.3742 11.6187 15.8333 10.0003 15.8333C6.66699 15.8333 3.88949 13.8892 1.66699 10C2.80783 8.00416 4.09449 6.52083 5.52699 5.54917" stroke="#A0AEC0" stroke-width="1.5" stroke-linecap="round" stroke-linejoin="round"/>
</svg>
