<svg width="28" height="26" viewBox="0 0 28 26" fill="none" xmlns="http://www.w3.org/2000/svg">
<path fill-rule="evenodd" clip-rule="evenodd" d="M27.44 13.2954C27.44 12.3736 27.3509 11.4873 27.1854 10.6364H14V15.665H21.5345C21.21 17.29 20.2236 18.6668 18.7409 19.5886V22.8504H23.2654C25.9127 20.5872 27.44 17.2545 27.44 13.2954Z" fill="#4285F4"/>
<path fill-rule="evenodd" clip-rule="evenodd" d="M14.0002 26C17.7801 26 20.9492 24.8359 23.2656 22.8504L18.7411 19.5886C17.4874 20.3686 15.8838 20.8295 14.0002 20.8295C10.3538 20.8295 7.26743 18.5427 6.16652 15.47H1.48926V18.8381C3.79289 23.0868 8.52743 26 14.0002 26Z" fill="#34A853"/>
<path fill-rule="evenodd" clip-rule="evenodd" d="M6.16636 15.47C5.88636 14.69 5.72726 13.8569 5.72726 13C5.72726 12.1432 5.88636 11.31 6.16636 10.53V7.16187H1.48909C0.540908 8.91686 0 10.9023 0 13C0 15.0978 0.540908 17.0832 1.48909 18.8382L6.16636 15.47Z" fill="#FBBC05"/>
<path fill-rule="evenodd" clip-rule="evenodd" d="M14.0001 5.17045C16.0556 5.17045 17.9011 5.82635 19.352 7.11453L23.3674 3.3859C20.9429 1.28818 17.7738 0 14.0001 0C8.52743 0 3.79289 2.91318 1.48926 7.16181L6.16652 10.53C7.26743 7.45726 10.3538 5.17045 14.0001 5.17045Z" fill="#EA4335"/>
</svg>
