<svg width="18" height="18" viewBox="0 0 18 18" fill="none" xmlns="http://www.w3.org/2000/svg">
<path d="M14.6251 10.179L9.0001 15.75L6.8281 13.599M2.24035 7.52099C2.23408 6.73001 2.4781 5.9573 2.93749 5.31337C3.39689 4.66944 4.04814 4.18727 4.79811 3.93581C5.54808 3.68435 6.35836 3.67648 7.11308 3.91332C7.86779 4.15017 8.52829 4.6196 9.0001 5.25449C9.31025 4.84201 9.7022 4.49798 10.1514 4.24394C10.6007 3.98991 11.0975 3.83133 11.6108 3.77813C12.1241 3.72493 12.6429 3.77826 13.1347 3.93478C13.6265 4.0913 14.0806 4.34764 14.4688 4.68776C14.8569 5.02788 15.1707 5.44445 15.3904 5.91141C15.6102 6.37837 15.7312 6.88565 15.7458 7.40152C15.7605 7.91739 15.6685 8.43073 15.4757 8.90943C15.2829 9.38812 14.9933 9.82186 14.6251 10.1835M2.25012 9.74999H3.75012L5.25012 12L6.75012 7.49999L7.50012 9.74999H9.75012" stroke="#808B9A" stroke-width="1.5" stroke-linecap="round" stroke-linejoin="round"/>
</svg>
