<svg width="19" height="18" viewBox="0 0 19 18" fill="none" xmlns="http://www.w3.org/2000/svg">
<path d="M7 15.75V11.25C7 10.8522 7.15804 10.4706 7.43934 10.1893C7.72064 9.90804 8.10218 9.75 8.5 9.75H10C10.3978 9.75 10.7794 9.90804 11.0607 10.1893C11.342 10.4706 11.5 10.8522 11.5 11.25V15.75M4 9H2.5L9.25 2.25L16 9H14.5V14.25C14.5 14.6478 14.342 15.0294 14.0607 15.3107C13.7794 15.592 13.3978 15.75 13 15.75H5.5C5.10218 15.75 4.72064 15.592 4.43934 15.3107C4.15804 15.0294 4 14.6478 4 14.25V9Z" stroke="#808B9A" stroke-width="1.5" stroke-linecap="round" stroke-linejoin="round"/>
</svg>
