<svg width="50" height="56" viewBox="0 0 50 56" fill="none" xmlns="http://www.w3.org/2000/svg">
<path opacity="0.3" d="M22 14.5001L21.0299 14.2576L22 14.5001ZM27.2805 5.62465C27.6255 5.19336 27.5555 4.56407 27.1243 4.2191C26.693 3.87413 26.0637 3.9441 25.7187 4.3754L27.2805 5.62465ZM18.9442 33.3608C19.9566 30.445 20.6302 27.095 21.2156 23.8443C21.807 20.561 22.3054 17.4022 22.9702 14.7426L21.0299 14.2576C20.3437 17.0031 19.8262 20.2756 19.2473 23.4898C18.6625 26.7367 18.0112 29.9504 17.0549 32.7048L18.9442 33.3608ZM22.9702 14.7426C23.9392 10.8653 25.3809 7.99961 27.2805 5.62465L25.7187 4.3754C23.6191 7.00039 22.0603 10.1347 21.0299 14.2576L22.9702 14.7426Z" fill="#B4DC8A"/>
<path opacity="0.3" d="M32.5 25.5L31.9265 24.6808L32.5 25.5ZM44.4487 10.3162C44.6233 9.79228 44.3402 9.22596 43.8162 9.05132C43.2923 8.87667 42.726 9.15983 42.5513 9.68377L44.4487 10.3162ZM20.5 30.9999C25.1444 30.9999 30.0893 28.4081 33.0735 26.3192L31.9265 24.6808C29.0487 26.6952 24.5223 28.9999 20.5 28.9999V30.9999ZM33.0735 26.3192C38.284 22.6719 42.3956 16.4755 44.4487 10.3162L42.5513 9.68377C40.6044 15.5245 36.716 21.3282 31.9265 24.6808L33.0735 26.3192Z" fill="#B4DC8A"/>
<path d="M5 51.5C6.66667 49.5 13.4 45.6 15 42C17.4444 36.5 18.8333 31.8333 19 29" stroke="#82C43C" stroke-width="2" stroke-linecap="round"/>
<rect x="13" y="23.5" width="12" height="12" rx="6" fill="#E6F3D8"/>
<rect x="13" y="23.5" width="12" height="12" rx="6" stroke="#82C43C"/>
<circle cx="19" cy="29.5" r="3.5" fill="#82C43C"/>
</svg>
