<svg width="24" height="25" viewBox="0 0 24 25" fill="none" xmlns="http://www.w3.org/2000/svg">
<path d="M13.6202 8.88192L15.5862 6.91492C15.3536 6.68239 15.182 6.39609 15.0864 6.08138C14.9909 5.76667 14.9745 5.43325 15.0386 5.11067C15.1027 4.78809 15.2454 4.48629 15.4539 4.23201C15.6625 3.97774 15.9306 3.77882 16.2345 3.6529C16.5383 3.52697 16.8685 3.47791 17.1958 3.51007C17.5231 3.54223 17.8374 3.65462 18.1109 3.83727C18.3845 4.01992 18.6087 4.26721 18.7638 4.55722C18.9189 4.84723 19.0001 5.17103 19.0002 5.49992C19.3292 5.49968 19.6531 5.5806 19.9434 5.7355C20.2336 5.8904 20.4811 6.11451 20.664 6.38795C20.8469 6.66139 20.9596 6.97573 20.9919 7.30311C21.0243 7.63048 20.9754 7.96079 20.8496 8.26476C20.7238 8.56873 20.525 8.83697 20.2707 9.04572C20.0164 9.25446 19.7146 9.39726 19.392 9.46146C19.0693 9.52566 18.7358 9.50928 18.421 9.41377C18.1062 9.31826 17.8198 9.14657 17.5872 8.91392L15.7672 10.7349M12.975 21.9249C11.8034 23.0964 8.63757 21.8301 5.9039 19.0964C3.17023 16.3628 1.9039 13.1969 3.07547 12.0254M12.975 21.9249C14.1465 20.7533 12.8802 17.5875 10.1465 14.8538C7.41287 12.1201 4.24704 10.8538 3.07547 12.0254M12.975 21.9249C16.88 18.0189 17.8302 12.637 15.0962 9.90397C12.3632 7.16997 6.98047 8.12037 3.07547 12.0254M7.50022 16.5L8.50022 17.5" stroke="#808B9A" stroke-width="1.5" stroke-linecap="round" stroke-linejoin="round"/>
</svg>
