<svg width="50" height="56" viewBox="0 0 50 56" fill="none" xmlns="http://www.w3.org/2000/svg">
<g clip-path="url(#clip0_51_27221)">
<path opacity="0.3" d="M15 16.5L15.8575 15.9856L15 16.5ZM7.2805 5.12472C7.62547 4.69343 7.5555 4.06414 7.1242 3.71917C6.69291 3.3742 6.06362 3.44418 5.71865 3.87547L7.2805 5.12472ZM18.944 33.3608C21.0587 27.2706 18.9116 21.0765 15.8575 15.9856L14.1424 17.0145C17.0873 21.9233 18.8777 27.4545 17.0547 32.7048L18.944 33.3608ZM15.8575 15.9856C15.2621 14.9931 14.2659 13.8839 13.2168 12.7921C12.117 11.6475 10.9992 10.5613 9.93328 9.42692C8.88212 8.3082 8.03198 7.29507 7.55974 6.44635C7.05578 5.54062 7.19354 5.23344 7.2805 5.12472L5.71865 3.87547C4.80581 5.01674 5.24108 6.39259 5.81206 7.41877C6.41475 8.50196 7.41699 9.66964 8.47573 10.7964C9.51975 11.9076 10.7694 13.1316 11.7747 14.1778C12.8307 15.2769 13.6773 16.2391 14.1424 17.0145L15.8575 15.9856Z" fill="#B4DC8A"/>
<path d="M37.9992 49.5C31.5 45 28.5753 43.9613 25.4992 41.5C20.5 37.5 18.8328 31.8333 18.9995 29" stroke="#82C43C" stroke-width="2" stroke-linecap="round"/>
<rect x="13" y="23.5" width="12" height="12" rx="6" fill="#E6F3D8"/>
<rect x="13" y="23.5" width="12" height="12" rx="6" stroke="#82C43C"/>
<circle cx="19" cy="29.5" r="3.5" fill="#82C43C"/>
</g>
<defs>
<clipPath id="clip0_51_27221">
<rect width="50" height="56" fill="white"/>
</clipPath>
</defs>
</svg>
