<svg width="26" height="25" viewBox="0 0 26 25" fill="none" xmlns="http://www.w3.org/2000/svg">
<mask id="path-1-inside-1_51_28815" fill="white">
<path d="M6.75005 13.0209L9.07659 7.90234C9.24562 7.53046 9.61611 7.29232 10.0231 7.2571C10.867 7.18405 12.2932 6.95684 13 6.25004C13.6238 5.62625 14.4343 4.06859 14.9843 2.91922C15.2969 2.26588 16.1624 2.08982 16.689 2.58714L24.2257 9.70513C24.6424 10.0987 24.6649 10.7522 24.2713 11.1689C21.791 13.7948 13.5825 22.3959 12.4791 22.3959C11.177 22.3959 6.74977 22.3959 3.6249 22.3959C0.500032 22.3959 1.02071 16.6667 2.5833 14.5834C4.1459 12.5 6.75005 13.0209 6.75005 13.0209Z"/>
</mask>
<path d="M6.75005 13.0209L6.45588 14.4917C7.13947 14.6285 7.82715 14.2762 8.11561 13.6416L6.75005 13.0209ZM24.2257 9.70513L23.1957 10.7956L24.2257 9.70513ZM24.2713 11.1689L23.1809 10.1389L24.2713 11.1689ZM9.07659 7.90234L7.71103 7.28165L9.07659 7.90234ZM10.0231 7.2571L10.1524 8.75151L10.0231 7.2571ZM16.689 2.58714L17.7189 1.49662V1.49662L16.689 2.58714ZM14.9843 2.91922L13.6312 2.2718V2.2718L14.9843 2.91922ZM3.78328 15.4834C4.26224 14.8448 4.89558 14.5935 5.48073 14.5034C5.77564 14.4581 6.04011 14.4579 6.228 14.4693C6.32056 14.4749 6.39056 14.4831 6.43153 14.4887C6.4519 14.4915 6.46471 14.4936 6.46913 14.4943C6.47132 14.4947 6.4714 14.4947 6.46923 14.4943C6.46815 14.4941 6.4665 14.4938 6.46428 14.4934C6.46317 14.4932 6.46192 14.4929 6.46052 14.4927C6.45982 14.4925 6.45908 14.4924 6.45831 14.4922C6.45792 14.4921 6.45731 14.492 6.45712 14.492C6.4565 14.4919 6.45588 14.4917 6.75005 13.0209C7.04423 11.55 7.04358 11.5499 7.04293 11.5497C7.04269 11.5497 7.04203 11.5496 7.04156 11.5495C7.04063 11.5493 7.03965 11.5491 7.03864 11.5489C7.03661 11.5485 7.0344 11.5481 7.03204 11.5476C7.0273 11.5467 7.0219 11.5457 7.01584 11.5445C7.00373 11.5423 6.98898 11.5397 6.97173 11.5367C6.93724 11.5309 6.89257 11.5238 6.83868 11.5164C6.73113 11.5017 6.58547 11.4855 6.40948 11.4748C6.06026 11.4536 5.57602 11.4535 5.02457 11.5383C3.917 11.7087 2.46696 12.2386 1.38333 13.6833L3.78328 15.4834ZM15.6591 3.67765L23.1957 10.7956L25.2556 8.61462L17.7189 1.49662L15.6591 3.67765ZM23.1809 10.1389C21.9436 11.4487 19.285 14.2411 16.8028 16.7018C15.5591 17.9348 14.3772 19.0671 13.4477 19.8846C12.9797 20.2962 12.6018 20.6048 12.3264 20.8025C12.1866 20.9028 12.1039 20.9522 12.0695 20.9702C11.9764 21.0191 12.158 20.8959 12.4791 20.8959V23.8959C12.9383 23.8959 13.3133 23.7055 13.4629 23.627C13.6711 23.5178 13.8803 23.3799 14.0754 23.2399C14.4697 22.9569 14.9336 22.573 15.429 22.1373C16.4264 21.26 17.6586 20.0778 18.9149 18.8323C21.4329 16.3361 24.1187 13.5149 25.3618 12.1989L23.1809 10.1389ZM12.4791 20.8959C12.4766 20.8959 12.474 20.8959 12.4715 20.8959C12.4689 20.8959 12.4663 20.8959 12.4637 20.8959C12.4611 20.8959 12.4585 20.8959 12.4559 20.8959C12.4533 20.8959 12.4507 20.8959 12.4481 20.8959C12.4454 20.8959 12.4428 20.8959 12.4401 20.8959C12.4374 20.8959 12.4348 20.8959 12.4321 20.8959C12.4294 20.8959 12.4267 20.8959 12.424 20.8959C12.4213 20.8959 12.4186 20.8959 12.4158 20.8959C12.4131 20.8959 12.4104 20.8959 12.4076 20.8959C12.4048 20.8959 12.4021 20.8959 12.3993 20.8959C12.3965 20.8959 12.3937 20.8959 12.3909 20.8959C12.3881 20.8959 12.3853 20.8959 12.3825 20.8959C12.3797 20.8959 12.3768 20.8959 12.374 20.8959C12.3711 20.8959 12.3683 20.8959 12.3654 20.8959C12.3625 20.8959 12.3597 20.8959 12.3568 20.8959C12.3539 20.8959 12.351 20.8959 12.348 20.8959C12.3451 20.8959 12.3422 20.8959 12.3393 20.8959C12.3363 20.8959 12.3334 20.8959 12.3304 20.8959C12.3274 20.8959 12.3245 20.8959 12.3215 20.8959C12.3185 20.8959 12.3155 20.8959 12.3125 20.8959C12.3095 20.8959 12.3065 20.8959 12.3035 20.8959C12.3004 20.8959 12.2974 20.8959 12.2943 20.8959C12.2913 20.8959 12.2882 20.8959 12.2851 20.8959C12.2821 20.8959 12.279 20.8959 12.2759 20.8959C12.2728 20.8959 12.2697 20.8959 12.2666 20.8959C12.2634 20.8959 12.2603 20.8959 12.2572 20.8959C12.254 20.8959 12.2509 20.8959 12.2477 20.8959C12.2446 20.8959 12.2414 20.8959 12.2382 20.8959C12.235 20.8959 12.2318 20.8959 12.2286 20.8959C12.2254 20.8959 12.2222 20.8959 12.219 20.8959C12.2157 20.8959 12.2125 20.8959 12.2092 20.8959C12.206 20.8959 12.2027 20.8959 12.1994 20.8959C12.1962 20.8959 12.1929 20.8959 12.1896 20.8959C12.1863 20.8959 12.183 20.8959 12.1797 20.8959C12.1764 20.8959 12.173 20.8959 12.1697 20.8959C12.1664 20.8959 12.163 20.8959 12.1597 20.8959C12.1563 20.8959 12.1529 20.8959 12.1496 20.8959C12.1462 20.8959 12.1428 20.8959 12.1394 20.8959C12.136 20.8959 12.1326 20.8959 12.1291 20.8959C12.1257 20.8959 12.1223 20.8959 12.1188 20.8959C12.1154 20.8959 12.1119 20.8959 12.1085 20.8959C12.105 20.8959 12.1015 20.8959 12.0981 20.8959C12.0946 20.8959 12.0911 20.8959 12.0876 20.8959C12.0841 20.8959 12.0805 20.8959 12.077 20.8959C12.0735 20.8959 12.0699 20.8959 12.0664 20.8959C12.0628 20.8959 12.0593 20.8959 12.0557 20.8959C12.0521 20.8959 12.0486 20.8959 12.045 20.8959C12.0414 20.8959 12.0378 20.8959 12.0342 20.8959C12.0306 20.8959 12.0269 20.8959 12.0233 20.8959C12.0197 20.8959 12.016 20.8959 12.0124 20.8959C12.0087 20.8959 12.0051 20.8959 12.0014 20.8959C11.9977 20.8959 11.994 20.8959 11.9903 20.8959C11.9866 20.8959 11.9829 20.8959 11.9792 20.8959C11.9755 20.8959 11.9718 20.8959 11.968 20.8959C11.9643 20.8959 11.9606 20.8959 11.9568 20.8959C11.9531 20.8959 11.9493 20.8959 11.9455 20.8959C11.9417 20.8959 11.938 20.8959 11.9342 20.8959C11.9304 20.8959 11.9266 20.8959 11.9227 20.8959C11.9189 20.8959 11.9151 20.8959 11.9113 20.8959C11.9074 20.8959 11.9036 20.8959 11.8997 20.8959C11.8959 20.8959 11.892 20.8959 11.8881 20.8959C11.8843 20.8959 11.8804 20.8959 11.8765 20.8959C11.8726 20.8959 11.8687 20.8959 11.8648 20.8959C11.8609 20.8959 11.8569 20.8959 11.853 20.8959C11.8491 20.8959 11.8451 20.8959 11.8412 20.8959C11.8372 20.8959 11.8332 20.8959 11.8293 20.8959C11.8253 20.8959 11.8213 20.8959 11.8173 20.8959C11.8133 20.8959 11.8093 20.8959 11.8053 20.8959C11.8013 20.8959 11.7973 20.8959 11.7933 20.8959C11.7892 20.8959 11.7852 20.8959 11.7811 20.8959C11.7771 20.8959 11.773 20.8959 11.769 20.8959C11.7649 20.8959 11.7608 20.8959 11.7567 20.8959C11.7526 20.8959 11.7485 20.8959 11.7444 20.8959C11.7403 20.8959 11.7362 20.8959 11.7321 20.8959C11.7279 20.8959 11.7238 20.8959 11.7197 20.8959C11.7155 20.8959 11.7114 20.8959 11.7072 20.8959C11.703 20.8959 11.6989 20.8959 11.6947 20.8959C11.6905 20.8959 11.6863 20.8959 11.6821 20.8959C11.6779 20.8959 11.6737 20.8959 11.6695 20.8959C11.6652 20.8959 11.661 20.8959 11.6568 20.8959C11.6525 20.8959 11.6483 20.8959 11.644 20.8959C11.6398 20.8959 11.6355 20.8959 11.6312 20.8959C11.6269 20.8959 11.6227 20.8959 11.6184 20.8959C11.6141 20.8959 11.6098 20.8959 11.6054 20.8959C11.6011 20.8959 11.5968 20.8959 11.5925 20.8959C11.5881 20.8959 11.5838 20.8959 11.5795 20.8959C11.5751 20.8959 11.5707 20.8959 11.5664 20.8959C11.562 20.8959 11.5576 20.8959 11.5533 20.8959C11.5489 20.8959 11.5445 20.8959 11.5401 20.8959C11.5357 20.8959 11.5312 20.8959 11.5268 20.8959C11.5224 20.8959 11.518 20.8959 11.5135 20.8959C11.5091 20.8959 11.5046 20.8959 11.5002 20.8959C11.4957 20.8959 11.4913 20.8959 11.4868 20.8959C11.4823 20.8959 11.4778 20.8959 11.4733 20.8959C11.4688 20.8959 11.4643 20.8959 11.4598 20.8959C11.4553 20.8959 11.4508 20.8959 11.4463 20.8959C11.4417 20.8959 11.4372 20.8959 11.4327 20.8959C11.4281 20.8959 11.4236 20.8959 11.419 20.8959C11.4144 20.8959 11.4099 20.8959 11.4053 20.8959C11.4007 20.8959 11.3961 20.8959 11.3915 20.8959C11.3869 20.8959 11.3823 20.8959 11.3777 20.8959C11.3731 20.8959 11.3685 20.8959 11.3638 20.8959C11.3592 20.8959 11.3546 20.8959 11.3499 20.8959C11.3453 20.8959 11.3406 20.8959 11.3359 20.8959C11.3313 20.8959 11.3266 20.8959 11.3219 20.8959C11.3172 20.8959 11.3125 20.8959 11.3078 20.8959C11.3031 20.8959 11.2984 20.8959 11.2937 20.8959C11.289 20.8959 11.2843 20.8959 11.2795 20.8959C11.2748 20.8959 11.2701 20.8959 11.2653 20.8959C11.2606 20.8959 11.2558 20.8959 11.251 20.8959C11.2463 20.8959 11.2415 20.8959 11.2367 20.8959C11.2319 20.8959 11.2271 20.8959 11.2223 20.8959C11.2175 20.8959 11.2127 20.8959 11.2079 20.8959C11.2031 20.8959 11.1983 20.8959 11.1934 20.8959C11.1886 20.8959 11.1838 20.8959 11.1789 20.8959C11.1741 20.8959 11.1692 20.8959 11.1643 20.8959C11.1595 20.8959 11.1546 20.8959 11.1497 20.8959C11.1448 20.8959 11.14 20.8959 11.1351 20.8959C11.1302 20.8959 11.1253 20.8959 11.1203 20.8959C11.1154 20.8959 11.1105 20.8959 11.1056 20.8959C11.1006 20.8959 11.0957 20.8959 11.0908 20.8959C11.0858 20.8959 11.0809 20.8959 11.0759 20.8959C11.0709 20.8959 11.066 20.8959 11.061 20.8959C11.056 20.8959 11.051 20.8959 11.046 20.8959C11.0411 20.8959 11.0361 20.8959 11.031 20.8959C11.026 20.8959 11.021 20.8959 11.016 20.8959C11.011 20.8959 11.0059 20.8959 11.0009 20.8959C10.9959 20.8959 10.9908 20.8959 10.9858 20.8959C10.9807 20.8959 10.9756 20.8959 10.9706 20.8959C10.9655 20.8959 10.9604 20.8959 10.9553 20.8959C10.9503 20.8959 10.9452 20.8959 10.9401 20.8959C10.935 20.8959 10.9299 20.8959 10.9247 20.8959C10.9196 20.8959 10.9145 20.8959 10.9094 20.8959C10.9042 20.8959 10.8991 20.8959 10.894 20.8959C10.8888 20.8959 10.8837 20.8959 10.8785 20.8959C10.8733 20.8959 10.8682 20.8959 10.863 20.8959C10.8578 20.8959 10.8526 20.8959 10.8474 20.8959C10.8422 20.8959 10.8371 20.8959 10.8318 20.8959C10.8266 20.8959 10.8214 20.8959 10.8162 20.8959C10.811 20.8959 10.8058 20.8959 10.8005 20.8959C10.7953 20.8959 10.79 20.8959 10.7848 20.8959C10.7796 20.8959 10.7743 20.8959 10.769 20.8959C10.7638 20.8959 10.7585 20.8959 10.7532 20.8959C10.7479 20.8959 10.7427 20.8959 10.7374 20.8959C10.7321 20.8959 10.7268 20.8959 10.7215 20.8959C10.7162 20.8959 10.7108 20.8959 10.7055 20.8959C10.7002 20.8959 10.6949 20.8959 10.6895 20.8959C10.6842 20.8959 10.6789 20.8959 10.6735 20.8959C10.6682 20.8959 10.6628 20.8959 10.6574 20.8959C10.6521 20.8959 10.6467 20.8959 10.6413 20.8959C10.636 20.8959 10.6306 20.8959 10.6252 20.8959C10.6198 20.8959 10.6144 20.8959 10.609 20.8959C10.6036 20.8959 10.5982 20.8959 10.5927 20.8959C10.5873 20.8959 10.5819 20.8959 10.5765 20.8959C10.571 20.8959 10.5656 20.8959 10.5601 20.8959C10.5547 20.8959 10.5492 20.8959 10.5438 20.8959C10.5383 20.8959 10.5329 20.8959 10.5274 20.8959C10.5219 20.8959 10.5164 20.8959 10.5109 20.8959C10.5055 20.8959 10.5 20.8959 10.4945 20.8959C10.489 20.8959 10.4835 20.8959 10.4779 20.8959C10.4724 20.8959 10.4669 20.8959 10.4614 20.8959C10.4559 20.8959 10.4503 20.8959 10.4448 20.8959C10.4392 20.8959 10.4337 20.8959 10.4281 20.8959C10.4226 20.8959 10.417 20.8959 10.4115 20.8959C10.4059 20.8959 10.4003 20.8959 10.3947 20.8959C10.3892 20.8959 10.3836 20.8959 10.378 20.8959C10.3724 20.8959 10.3668 20.8959 10.3612 20.8959C10.3556 20.8959 10.35 20.8959 10.3444 20.8959C10.3387 20.8959 10.3331 20.8959 10.3275 20.8959C10.3219 20.8959 10.3162 20.8959 10.3106 20.8959C10.3049 20.8959 10.2993 20.8959 10.2936 20.8959C10.288 20.8959 10.2823 20.8959 10.2766 20.8959C10.271 20.8959 10.2653 20.8959 10.2596 20.8959C10.2539 20.8959 10.2483 20.8959 10.2426 20.8959C10.2369 20.8959 10.2312 20.8959 10.2255 20.8959C10.2198 20.8959 10.214 20.8959 10.2083 20.8959C10.2026 20.8959 10.1969 20.8959 10.1912 20.8959C10.1854 20.8959 10.1797 20.8959 10.1739 20.8959C10.1682 20.8959 10.1625 20.8959 10.1567 20.8959C10.1509 20.8959 10.1452 20.8959 10.1394 20.8959C10.1337 20.8959 10.1279 20.8959 10.1221 20.8959C10.1163 20.8959 10.1105 20.8959 10.1048 20.8959C10.099 20.8959 10.0932 20.8959 10.0874 20.8959C10.0816 20.8959 10.0758 20.8959 10.0699 20.8959C10.0641 20.8959 10.0583 20.8959 10.0525 20.8959C10.0467 20.8959 10.0408 20.8959 10.035 20.8959C10.0292 20.8959 10.0233 20.8959 10.0175 20.8959C10.0116 20.8959 10.0058 20.8959 9.9999 20.8959C9.99404 20.8959 9.98818 20.8959 9.98231 20.8959C9.97644 20.8959 9.97056 20.8959 9.96468 20.8959C9.95879 20.8959 9.95291 20.8959 9.94701 20.8959C9.94112 20.8959 9.93522 20.8959 9.92931 20.8959C9.92341 20.8959 9.9175 20.8959 9.91158 20.8959C9.90567 20.8959 9.89974 20.8959 9.89382 20.8959C9.88789 20.8959 9.88196 20.8959 9.87602 20.8959C9.87008 20.8959 9.86414 20.8959 9.85819 20.8959C9.85224 20.8959 9.84628 20.8959 9.84033 20.8959C9.83436 20.8959 9.8284 20.8959 9.82243 20.8959C9.81646 20.8959 9.81048 20.8959 9.8045 20.8959C9.79852 20.8959 9.79253 20.8959 9.78654 20.8959C9.78055 20.8959 9.77455 20.8959 9.76855 20.8959C9.76254 20.8959 9.75654 20.8959 9.75052 20.8959C9.74451 20.8959 9.73849 20.8959 9.73247 20.8959C9.72644 20.8959 9.72041 20.8959 9.71438 20.8959C9.70834 20.8959 9.7023 20.8959 9.69626 20.8959C9.69022 20.8959 9.68417 20.8959 9.67811 20.8959C9.67206 20.8959 9.666 20.8959 9.65993 20.8959C9.65386 20.8959 9.64779 20.8959 9.64172 20.8959C9.63564 20.8959 9.62956 20.8959 9.62348 20.8959C9.61739 20.8959 9.6113 20.8959 9.60521 20.8959C9.59911 20.8959 9.59301 20.8959 9.58691 20.8959C9.5808 20.8959 9.57469 20.8959 9.56857 20.8959C9.56246 20.8959 9.55634 20.8959 9.55021 20.8959C9.54409 20.8959 9.53796 20.8959 9.53182 20.8959C9.52569 20.8959 9.51955 20.8959 9.5134 20.8959C9.50726 20.8959 9.50111 20.8959 9.49496 20.8959C9.4888 20.8959 9.48264 20.8959 9.47648 20.8959C9.47032 20.8959 9.46415 20.8959 9.45797 20.8959C9.4518 20.8959 9.44562 20.8959 9.43944 20.8959C9.43326 20.8959 9.42707 20.8959 9.42088 20.8959C9.41469 20.8959 9.40849 20.8959 9.40229 20.8959C9.39609 20.8959 9.38988 20.8959 9.38367 20.8959C9.37746 20.8959 9.37124 20.8959 9.36503 20.8959C9.35881 20.8959 9.35258 20.8959 9.34635 20.8959C9.34012 20.8959 9.33389 20.8959 9.32765 20.8959C9.32141 20.8959 9.31517 20.8959 9.30893 20.8959C9.30268 20.8959 9.29643 20.8959 9.29017 20.8959C9.28392 20.8959 9.27766 20.8959 9.27139 20.8959C9.26513 20.8959 9.25886 20.8959 9.25258 20.8959C9.24631 20.8959 9.24003 20.8959 9.23375 20.8959C9.22747 20.8959 9.22118 20.8959 9.21489 20.8959C9.2086 20.8959 9.20231 20.8959 9.19601 20.8959C9.18971 20.8959 9.1834 20.8959 9.1771 20.8959C9.17079 20.8959 9.16448 20.8959 9.15816 20.8959C9.15184 20.8959 9.14552 20.8959 9.1392 20.8959C9.13288 20.8959 9.12655 20.8959 9.12021 20.8959C9.11388 20.8959 9.10754 20.8959 9.1012 20.8959C9.09486 20.8959 9.08852 20.8959 9.08217 20.8959C9.07582 20.8959 9.06947 20.8959 9.06311 20.8959C9.05675 20.8959 9.05039 20.8959 9.04402 20.8959C9.03766 20.8959 9.03129 20.8959 9.02492 20.8959C9.01854 20.8959 9.01216 20.8959 9.00578 20.8959C8.9994 20.8959 8.99302 20.8959 8.98663 20.8959C8.98024 20.8959 8.97385 20.8959 8.96745 20.8959C8.96105 20.8959 8.95465 20.8959 8.94825 20.8959C8.94184 20.8959 8.93543 20.8959 8.92902 20.8959C8.92261 20.8959 8.91619 20.8959 8.90977 20.8959C8.90335 20.8959 8.89693 20.8959 8.8905 20.8959C8.88407 20.8959 8.87764 20.8959 8.87121 20.8959C8.86477 20.8959 8.85834 20.8959 8.85189 20.8959C8.84545 20.8959 8.83901 20.8959 8.83256 20.8959C8.82611 20.8959 8.81965 20.8959 8.8132 20.8959C8.80674 20.8959 8.80028 20.8959 8.79382 20.8959C8.78735 20.8959 8.78088 20.8959 8.77441 20.8959C8.76794 20.8959 8.76147 20.8959 8.75499 20.8959C8.74851 20.8959 8.74203 20.8959 8.73554 20.8959C8.72906 20.8959 8.72257 20.8959 8.71608 20.8959C8.70959 20.8959 8.70309 20.8959 8.69659 20.8959C8.69009 20.8959 8.68359 20.8959 8.67709 20.8959C8.67058 20.8959 8.66407 20.8959 8.65756 20.8959C8.65105 20.8959 8.64453 20.8959 8.63801 20.8959C8.63149 20.8959 8.62497 20.8959 8.61844 20.8959C8.61192 20.8959 8.60539 20.8959 8.59886 20.8959C8.59233 20.8959 8.58579 20.8959 8.57925 20.8959C8.57271 20.8959 8.56617 20.8959 8.55963 20.8959C8.55308 20.8959 8.54653 20.8959 8.53998 20.8959C8.53343 20.8959 8.52688 20.8959 8.52032 20.8959C8.51376 20.8959 8.5072 20.8959 8.50064 20.8959C8.49407 20.8959 8.48751 20.8959 8.48094 20.8959C8.47437 20.8959 8.46779 20.8959 8.46122 20.8959C8.45464 20.8959 8.44806 20.8959 8.44148 20.8959C8.4349 20.8959 8.42831 20.8959 8.42172 20.8959C8.41514 20.8959 8.40855 20.8959 8.40195 20.8959C8.39536 20.8959 8.38876 20.8959 8.38216 20.8959C8.37556 20.8959 8.36896 20.8959 8.36236 20.8959C8.35575 20.8959 8.34914 20.8959 8.34253 20.8959C8.33592 20.8959 8.32931 20.8959 8.32269 20.8959C8.31607 20.8959 8.30945 20.8959 8.30283 20.8959C8.29621 20.8959 8.28958 20.8959 8.28296 20.8959C8.27633 20.8959 8.2697 20.8959 8.26307 20.8959C8.25643 20.8959 8.2498 20.8959 8.24316 20.8959C8.23652 20.8959 8.22988 20.8959 8.22324 20.8959C8.21659 20.8959 8.20995 20.8959 8.2033 20.8959C8.19665 20.8959 8.19 20.8959 8.18334 20.8959C8.17669 20.8959 8.17003 20.8959 8.16337 20.8959C8.15672 20.8959 8.15005 20.8959 8.14339 20.8959C8.13673 20.8959 8.13006 20.8959 8.12339 20.8959C8.11672 20.8959 8.11005 20.8959 8.10338 20.8959C8.0967 20.8959 8.09003 20.8959 8.08335 20.8959C8.07667 20.8959 8.06999 20.8959 8.0633 20.8959C8.05662 20.8959 8.04994 20.8959 8.04325 20.8959C8.03656 20.8959 8.02987 20.8959 8.02318 20.8959C8.01648 20.8959 8.00979 20.8959 8.00309 20.8959C7.99639 20.8959 7.98969 20.8959 7.98299 20.8959C7.97629 20.8959 7.96959 20.8959 7.96288 20.8959C7.95618 20.8959 7.94947 20.8959 7.94276 20.8959C7.93605 20.8959 7.92933 20.8959 7.92262 20.8959C7.9159 20.8959 7.90919 20.8959 7.90247 20.8959C7.89575 20.8959 7.88903 20.8959 7.88231 20.8959C7.87558 20.8959 7.86886 20.8959 7.86213 20.8959C7.8554 20.8959 7.84867 20.8959 7.84194 20.8959C7.83521 20.8959 7.82848 20.8959 7.82174 20.8959C7.81501 20.8959 7.80827 20.8959 7.80153 20.8959C7.79479 20.8959 7.78805 20.8959 7.78131 20.8959C7.77457 20.8959 7.76782 20.8959 7.76107 20.8959C7.75433 20.8959 7.74758 20.8959 7.74083 20.8959C7.73408 20.8959 7.72733 20.8959 7.72057 20.8959C7.71382 20.8959 7.70706 20.8959 7.70031 20.8959C7.69355 20.8959 7.68679 20.8959 7.68003 20.8959C7.67327 20.8959 7.6665 20.8959 7.65974 20.8959C7.65298 20.8959 7.64621 20.8959 7.63944 20.8959C7.63267 20.8959 7.62591 20.8959 7.61913 20.8959C7.61236 20.8959 7.60559 20.8959 7.59882 20.8959C7.59204 20.8959 7.58527 20.8959 7.57849 20.8959C7.57171 20.8959 7.56493 20.8959 7.55815 20.8959C7.55137 20.8959 7.54459 20.8959 7.53781 20.8959C7.53102 20.8959 7.52424 20.8959 7.51745 20.8959C7.51066 20.8959 7.50388 20.8959 7.49709 20.8959C7.4903 20.8959 7.48351 20.8959 7.47671 20.8959C7.46992 20.8959 7.46313 20.8959 7.45633 20.8959C7.44954 20.8959 7.44274 20.8959 7.43594 20.8959C7.42915 20.8959 7.42235 20.8959 7.41555 20.8959C7.40875 20.8959 7.40195 20.8959 7.39514 20.8959C7.38834 20.8959 7.38154 20.8959 7.37473 20.8959C7.36792 20.8959 7.36112 20.8959 7.35431 20.8959C7.3475 20.8959 7.34069 20.8959 7.33388 20.8959C7.32707 20.8959 7.32026 20.8959 7.31345 20.8959C7.30664 20.8959 7.29982 20.8959 7.29301 20.8959C7.28619 20.8959 7.27938 20.8959 7.27256 20.8959C7.26574 20.8959 7.25893 20.8959 7.25211 20.8959C7.24529 20.8959 7.23847 20.8959 7.23165 20.8959C7.22483 20.8959 7.218 20.8959 7.21118 20.8959C7.20436 20.8959 7.19753 20.8959 7.19071 20.8959C7.18388 20.8959 7.17706 20.8959 7.17023 20.8959C7.1634 20.8959 7.15658 20.8959 7.14975 20.8959C7.14292 20.8959 7.13609 20.8959 7.12926 20.8959C7.12243 20.8959 7.1156 20.8959 7.10877 20.8959C7.10194 20.8959 7.0951 20.8959 7.08827 20.8959C7.08144 20.8959 7.0746 20.8959 7.06777 20.8959C7.06093 20.8959 7.0541 20.8959 7.04726 20.8959C7.04042 20.8959 7.03359 20.8959 7.02675 20.8959C7.01991 20.8959 7.01307 20.8959 7.00623 20.8959C6.99939 20.8959 6.99255 20.8959 6.98571 20.8959C6.97887 20.8959 6.97203 20.8959 6.96519 20.8959C6.95835 20.8959 6.95151 20.8959 6.94466 20.8959C6.93782 20.8959 6.93098 20.8959 6.92414 20.8959C6.91729 20.8959 6.91045 20.8959 6.9036 20.8959C6.89676 20.8959 6.88991 20.8959 6.88307 20.8959C6.87622 20.8959 6.86938 20.8959 6.86253 20.8959C6.85568 20.8959 6.84884 20.8959 6.84199 20.8959C6.83514 20.8959 6.82829 20.8959 6.82145 20.8959C6.8146 20.8959 6.80775 20.8959 6.8009 20.8959C6.79405 20.8959 6.7872 20.8959 6.78035 20.8959C6.77351 20.8959 6.76666 20.8959 6.75981 20.8959C6.75296 20.8959 6.74611 20.8959 6.73926 20.8959C6.73241 20.8959 6.72556 20.8959 6.71871 20.8959C6.71186 20.8959 6.705 20.8959 6.69815 20.8959C6.6913 20.8959 6.68445 20.8959 6.6776 20.8959C6.67075 20.8959 6.6639 20.8959 6.65705 20.8959C6.6502 20.8959 6.64334 20.8959 6.63649 20.8959C6.62964 20.8959 6.62279 20.8959 6.61594 20.8959C6.60909 20.8959 6.60224 20.8959 6.59538 20.8959C6.58853 20.8959 6.58168 20.8959 6.57483 20.8959C6.56798 20.8959 6.56113 20.8959 6.55428 20.8959C6.54742 20.8959 6.54057 20.8959 6.53372 20.8959C6.52687 20.8959 6.52002 20.8959 6.51317 20.8959C6.50632 20.8959 6.49947 20.8959 6.49262 20.8959C6.48577 20.8959 6.47892 20.8959 6.47207 20.8959C6.46522 20.8959 6.45837 20.8959 6.45152 20.8959C6.44467 20.8959 6.43782 20.8959 6.43097 20.8959C6.42412 20.8959 6.41727 20.8959 6.41042 20.8959C6.40357 20.8959 6.39673 20.8959 6.38988 20.8959C6.38303 20.8959 6.37618 20.8959 6.36934 20.8959C6.36249 20.8959 6.35564 20.8959 6.3488 20.8959C6.34195 20.8959 6.3351 20.8959 6.32826 20.8959C6.32141 20.8959 6.31457 20.8959 6.30772 20.8959C6.30088 20.8959 6.29404 20.8959 6.28719 20.8959C6.28035 20.8959 6.27351 20.8959 6.26666 20.8959C6.25982 20.8959 6.25298 20.8959 6.24614 20.8959C6.2393 20.8959 6.23246 20.8959 6.22562 20.8959C6.21878 20.8959 6.21194 20.8959 6.2051 20.8959C6.19826 20.8959 6.19142 20.8959 6.18458 20.8959C6.17775 20.8959 6.17091 20.8959 6.16407 20.8959C6.15724 20.8959 6.1504 20.8959 6.14357 20.8959C6.13673 20.8959 6.1299 20.8959 6.12306 20.8959C6.11623 20.8959 6.1094 20.8959 6.10257 20.8959C6.09574 20.8959 6.08891 20.8959 6.08208 20.8959C6.07525 20.8959 6.06842 20.8959 6.06159 20.8959C6.05476 20.8959 6.04793 20.8959 6.04111 20.8959C6.03428 20.8959 6.02745 20.8959 6.02063 20.8959C6.01381 20.8959 6.00698 20.8959 6.00016 20.8959C5.99334 20.8959 5.98652 20.8959 5.9797 20.8959C5.97287 20.8959 5.96605 20.8959 5.95924 20.8959C5.95242 20.8959 5.9456 20.8959 5.93878 20.8959C5.93197 20.8959 5.92515 20.8959 5.91834 20.8959C5.91152 20.8959 5.90471 20.8959 5.8979 20.8959C5.89109 20.8959 5.88428 20.8959 5.87747 20.8959C5.87066 20.8959 5.86385 20.8959 5.85704 20.8959C5.85023 20.8959 5.84343 20.8959 5.83662 20.8959C5.82982 20.8959 5.82301 20.8959 5.81621 20.8959C5.80941 20.8959 5.80261 20.8959 5.79581 20.8959C5.78901 20.8959 5.78221 20.8959 5.77541 20.8959C5.76862 20.8959 5.76182 20.8959 5.75503 20.8959C5.74823 20.8959 5.74144 20.8959 5.73465 20.8959C5.72786 20.8959 5.72107 20.8959 5.71428 20.8959C5.70749 20.8959 5.7007 20.8959 5.69391 20.8959C5.68713 20.8959 5.68034 20.8959 5.67356 20.8959C5.66678 20.8959 5.66 20.8959 5.65322 20.8959C5.64644 20.8959 5.63966 20.8959 5.63288 20.8959C5.62611 20.8959 5.61933 20.8959 5.61256 20.8959C5.60578 20.8959 5.59901 20.8959 5.59224 20.8959C5.58547 20.8959 5.5787 20.8959 5.57194 20.8959C5.56517 20.8959 5.5584 20.8959 5.55164 20.8959C5.54488 20.8959 5.53811 20.8959 5.53135 20.8959C5.52459 20.8959 5.51783 20.8959 5.51108 20.8959C5.50432 20.8959 5.49757 20.8959 5.49081 20.8959C5.48406 20.8959 5.47731 20.8959 5.47056 20.8959C5.46381 20.8959 5.45706 20.8959 5.45032 20.8959C5.44357 20.8959 5.43683 20.8959 5.43008 20.8959C5.42334 20.8959 5.4166 20.8959 5.40986 20.8959C5.40313 20.8959 5.39639 20.8959 5.38966 20.8959C5.38292 20.8959 5.37619 20.8959 5.36946 20.8959C5.36273 20.8959 5.356 20.8959 5.34927 20.8959C5.34255 20.8959 5.33582 20.8959 5.3291 20.8959C5.32238 20.8959 5.31566 20.8959 5.30894 20.8959C5.30222 20.8959 5.29551 20.8959 5.28879 20.8959C5.28208 20.8959 5.27537 20.8959 5.26866 20.8959C5.26195 20.8959 5.25524 20.8959 5.24854 20.8959C5.24183 20.8959 5.23513 20.8959 5.22843 20.8959C5.22173 20.8959 5.21503 20.8959 5.20833 20.8959C5.20164 20.8959 5.19494 20.8959 5.18825 20.8959C5.18156 20.8959 5.17487 20.8959 5.16818 20.8959C5.16149 20.8959 5.15481 20.8959 5.14813 20.8959C5.14144 20.8959 5.13476 20.8959 5.12809 20.8959C5.12141 20.8959 5.11473 20.8959 5.10806 20.8959C5.10139 20.8959 5.09472 20.8959 5.08805 20.8959C5.08138 20.8959 5.07472 20.8959 5.06805 20.8959C5.06139 20.8959 5.05473 20.8959 5.04807 20.8959C5.04142 20.8959 5.03476 20.8959 5.02811 20.8959C5.02145 20.8959 5.0148 20.8959 5.00816 20.8959C5.00151 20.8959 4.99486 20.8959 4.98822 20.8959C4.98158 20.8959 4.97494 20.8959 4.9683 20.8959C4.96166 20.8959 4.95503 20.8959 4.9484 20.8959C4.94177 20.8959 4.93514 20.8959 4.92851 20.8959C4.92188 20.8959 4.91526 20.8959 4.90864 20.8959C4.90202 20.8959 4.8954 20.8959 4.88879 20.8959C4.88217 20.8959 4.87556 20.8959 4.86895 20.8959C4.86234 20.8959 4.85573 20.8959 4.84913 20.8959C4.84252 20.8959 4.83592 20.8959 4.82932 20.8959C4.82273 20.8959 4.81613 20.8959 4.80954 20.8959C4.80295 20.8959 4.79636 20.8959 4.78977 20.8959C4.78318 20.8959 4.7766 20.8959 4.77002 20.8959C4.76344 20.8959 4.75686 20.8959 4.75028 20.8959C4.74371 20.8959 4.73714 20.8959 4.73057 20.8959C4.724 20.8959 4.71744 20.8959 4.71087 20.8959C4.70431 20.8959 4.69775 20.8959 4.6912 20.8959C4.68464 20.8959 4.67809 20.8959 4.67154 20.8959C4.66499 20.8959 4.65844 20.8959 4.6519 20.8959C4.64535 20.8959 4.63881 20.8959 4.63227 20.8959C4.62574 20.8959 4.6192 20.8959 4.61267 20.8959C4.60614 20.8959 4.59961 20.8959 4.59309 20.8959C4.58657 20.8959 4.58004 20.8959 4.57353 20.8959C4.56701 20.8959 4.5605 20.8959 4.55398 20.8959C4.54747 20.8959 4.54097 20.8959 4.53446 20.8959C4.52796 20.8959 4.52146 20.8959 4.51496 20.8959C4.50846 20.8959 4.50197 20.8959 4.49548 20.8959C4.48899 20.8959 4.4825 20.8959 4.47602 20.8959C4.46953 20.8959 4.46305 20.8959 4.45658 20.8959C4.4501 20.8959 4.44363 20.8959 4.43716 20.8959C4.43069 20.8959 4.42422 20.8959 4.41776 20.8959C4.4113 20.8959 4.40484 20.8959 4.39838 20.8959C4.39193 20.8959 4.38548 20.8959 4.37903 20.8959C4.37258 20.8959 4.36614 20.8959 4.35969 20.8959C4.35325 20.8959 4.34682 20.8959 4.34038 20.8959C4.33395 20.8959 4.32752 20.8959 4.3211 20.8959C4.31467 20.8959 4.30825 20.8959 4.30183 20.8959C4.29541 20.8959 4.289 20.8959 4.28259 20.8959C4.27618 20.8959 4.26977 20.8959 4.26337 20.8959C4.25696 20.8959 4.25056 20.8959 4.24417 20.8959C4.23777 20.8959 4.23138 20.8959 4.22499 20.8959C4.21861 20.8959 4.21222 20.8959 4.20584 20.8959C4.19946 20.8959 4.19309 20.8959 4.18672 20.8959C4.18035 20.8959 4.17398 20.8959 4.16761 20.8959C4.16125 20.8959 4.15489 20.8959 4.14854 20.8959C4.14218 20.8959 4.13583 20.8959 4.12948 20.8959C4.12313 20.8959 4.11679 20.8959 4.11045 20.8959C4.10411 20.8959 4.09778 20.8959 4.09144 20.8959C4.08511 20.8959 4.07879 20.8959 4.07246 20.8959C4.06614 20.8959 4.05982 20.8959 4.05351 20.8959C4.04719 20.8959 4.04088 20.8959 4.03458 20.8959C4.02827 20.8959 4.02197 20.8959 4.01567 20.8959C4.00938 20.8959 4.00308 20.8959 3.99679 20.8959C3.99051 20.8959 3.98422 20.8959 3.97794 20.8959C3.97166 20.8959 3.96538 20.8959 3.95911 20.8959C3.95284 20.8959 3.94657 20.8959 3.94031 20.8959C3.93405 20.8959 3.92779 20.8959 3.92154 20.8959C3.91528 20.8959 3.90903 20.8959 3.90279 20.8959C3.89654 20.8959 3.8903 20.8959 3.88407 20.8959C3.87783 20.8959 3.8716 20.8959 3.86537 20.8959C3.85915 20.8959 3.85293 20.8959 3.84671 20.8959C3.84049 20.8959 3.83428 20.8959 3.82807 20.8959C3.82186 20.8959 3.81566 20.8959 3.80946 20.8959C3.80326 20.8959 3.79706 20.8959 3.79087 20.8959C3.78468 20.8959 3.7785 20.8959 3.77232 20.8959C3.76614 20.8959 3.75996 20.8959 3.75379 20.8959C3.74762 20.8959 3.74145 20.8959 3.73529 20.8959C3.72913 20.8959 3.72297 20.8959 3.71682 20.8959C3.71067 20.8959 3.70452 20.8959 3.69838 20.8959C3.69223 20.8959 3.6861 20.8959 3.67996 20.8959C3.67383 20.8959 3.6677 20.8959 3.66158 20.8959C3.65546 20.8959 3.64934 20.8959 3.64323 20.8959C3.63711 20.8959 3.631 20.8959 3.6249 20.8959V23.8959C3.631 23.8959 3.63711 23.8959 3.64323 23.8959C3.64934 23.8959 3.65546 23.8959 3.66158 23.8959C3.6677 23.8959 3.67383 23.8959 3.67996 23.8959C3.6861 23.8959 3.69223 23.8959 3.69838 23.8959C3.70452 23.8959 3.71067 23.8959 3.71682 23.8959C3.72297 23.8959 3.72913 23.8959 3.73529 23.8959C3.74145 23.8959 3.74762 23.8959 3.75379 23.8959C3.75996 23.8959 3.76614 23.8959 3.77232 23.8959C3.7785 23.8959 3.78468 23.8959 3.79087 23.8959C3.79706 23.8959 3.80326 23.8959 3.80946 23.8959C3.81566 23.8959 3.82186 23.8959 3.82807 23.8959C3.83428 23.8959 3.84049 23.8959 3.84671 23.8959C3.85293 23.8959 3.85915 23.8959 3.86537 23.8959C3.8716 23.8959 3.87783 23.8959 3.88407 23.8959C3.8903 23.8959 3.89654 23.8959 3.90279 23.8959C3.90903 23.8959 3.91528 23.8959 3.92154 23.8959C3.92779 23.8959 3.93405 23.8959 3.94031 23.8959C3.94657 23.8959 3.95284 23.8959 3.95911 23.8959C3.96538 23.8959 3.97166 23.8959 3.97794 23.8959C3.98422 23.8959 3.99051 23.8959 3.99679 23.8959C4.00308 23.8959 4.00938 23.8959 4.01567 23.8959C4.02197 23.8959 4.02827 23.8959 4.03458 23.8959C4.04088 23.8959 4.04719 23.8959 4.05351 23.8959C4.05982 23.8959 4.06614 23.8959 4.07246 23.8959C4.07879 23.8959 4.08511 23.8959 4.09144 23.8959C4.09778 23.8959 4.10411 23.8959 4.11045 23.8959C4.11679 23.8959 4.12313 23.8959 4.12948 23.8959C4.13583 23.8959 4.14218 23.8959 4.14854 23.8959C4.15489 23.8959 4.16125 23.8959 4.16761 23.8959C4.17398 23.8959 4.18035 23.8959 4.18672 23.8959C4.19309 23.8959 4.19946 23.8959 4.20584 23.8959C4.21222 23.8959 4.21861 23.8959 4.22499 23.8959C4.23138 23.8959 4.23777 23.8959 4.24417 23.8959C4.25056 23.8959 4.25696 23.8959 4.26337 23.8959C4.26977 23.8959 4.27618 23.8959 4.28259 23.8959C4.289 23.8959 4.29541 23.8959 4.30183 23.8959C4.30825 23.8959 4.31467 23.8959 4.3211 23.8959C4.32752 23.8959 4.33395 23.8959 4.34038 23.8959C4.34682 23.8959 4.35325 23.8959 4.35969 23.8959C4.36614 23.8959 4.37258 23.8959 4.37903 23.8959C4.38548 23.8959 4.39193 23.8959 4.39838 23.8959C4.40484 23.8959 4.4113 23.8959 4.41776 23.8959C4.42422 23.8959 4.43069 23.8959 4.43716 23.8959C4.44363 23.8959 4.4501 23.8959 4.45658 23.8959C4.46305 23.8959 4.46953 23.8959 4.47602 23.8959C4.4825 23.8959 4.48899 23.8959 4.49548 23.8959C4.50197 23.8959 4.50846 23.8959 4.51496 23.8959C4.52146 23.8959 4.52796 23.8959 4.53446 23.8959C4.54097 23.8959 4.54747 23.8959 4.55398 23.8959C4.5605 23.8959 4.56701 23.8959 4.57353 23.8959C4.58004 23.8959 4.58657 23.8959 4.59309 23.8959C4.59961 23.8959 4.60614 23.8959 4.61267 23.8959C4.6192 23.8959 4.62574 23.8959 4.63227 23.8959C4.63881 23.8959 4.64535 23.8959 4.6519 23.8959C4.65844 23.8959 4.66499 23.8959 4.67154 23.8959C4.67809 23.8959 4.68464 23.8959 4.6912 23.8959C4.69775 23.8959 4.70431 23.8959 4.71087 23.8959C4.71744 23.8959 4.724 23.8959 4.73057 23.8959C4.73714 23.8959 4.74371 23.8959 4.75028 23.8959C4.75686 23.8959 4.76344 23.8959 4.77002 23.8959C4.7766 23.8959 4.78318 23.8959 4.78977 23.8959C4.79636 23.8959 4.80295 23.8959 4.80954 23.8959C4.81613 23.8959 4.82273 23.8959 4.82932 23.8959C4.83592 23.8959 4.84252 23.8959 4.84913 23.8959C4.85573 23.8959 4.86234 23.8959 4.86895 23.8959C4.87556 23.8959 4.88217 23.8959 4.88879 23.8959C4.8954 23.8959 4.90202 23.8959 4.90864 23.8959C4.91526 23.8959 4.92188 23.8959 4.92851 23.8959C4.93514 23.8959 4.94177 23.8959 4.9484 23.8959C4.95503 23.8959 4.96166 23.8959 4.9683 23.8959C4.97494 23.8959 4.98158 23.8959 4.98822 23.8959C4.99486 23.8959 5.00151 23.8959 5.00816 23.8959C5.0148 23.8959 5.02145 23.8959 5.02811 23.8959C5.03476 23.8959 5.04142 23.8959 5.04807 23.8959C5.05473 23.8959 5.06139 23.8959 5.06805 23.8959C5.07472 23.8959 5.08138 23.8959 5.08805 23.8959C5.09472 23.8959 5.10139 23.8959 5.10806 23.8959C5.11473 23.8959 5.12141 23.8959 5.12809 23.8959C5.13476 23.8959 5.14144 23.8959 5.14813 23.8959C5.15481 23.8959 5.16149 23.8959 5.16818 23.8959C5.17487 23.8959 5.18156 23.8959 5.18825 23.8959C5.19494 23.8959 5.20164 23.8959 5.20833 23.8959C5.21503 23.8959 5.22173 23.8959 5.22843 23.8959C5.23513 23.8959 5.24183 23.8959 5.24854 23.8959C5.25524 23.8959 5.26195 23.8959 5.26866 23.8959C5.27537 23.8959 5.28208 23.8959 5.28879 23.8959C5.29551 23.8959 5.30222 23.8959 5.30894 23.8959C5.31566 23.8959 5.32238 23.8959 5.3291 23.8959C5.33582 23.8959 5.34255 23.8959 5.34927 23.8959C5.356 23.8959 5.36273 23.8959 5.36946 23.8959C5.37619 23.8959 5.38292 23.8959 5.38966 23.8959C5.39639 23.8959 5.40313 23.8959 5.40986 23.8959C5.4166 23.8959 5.42334 23.8959 5.43008 23.8959C5.43683 23.8959 5.44357 23.8959 5.45032 23.8959C5.45706 23.8959 5.46381 23.8959 5.47056 23.8959C5.47731 23.8959 5.48406 23.8959 5.49081 23.8959C5.49757 23.8959 5.50432 23.8959 5.51108 23.8959C5.51783 23.8959 5.52459 23.8959 5.53135 23.8959C5.53811 23.8959 5.54488 23.8959 5.55164 23.8959C5.5584 23.8959 5.56517 23.8959 5.57194 23.8959C5.5787 23.8959 5.58547 23.8959 5.59224 23.8959C5.59901 23.8959 5.60578 23.8959 5.61256 23.8959C5.61933 23.8959 5.62611 23.8959 5.63288 23.8959C5.63966 23.8959 5.64644 23.8959 5.65322 23.8959C5.66 23.8959 5.66678 23.8959 5.67356 23.8959C5.68034 23.8959 5.68713 23.8959 5.69391 23.8959C5.7007 23.8959 5.70749 23.8959 5.71428 23.8959C5.72107 23.8959 5.72786 23.8959 5.73465 23.8959C5.74144 23.8959 5.74823 23.8959 5.75503 23.8959C5.76182 23.8959 5.76862 23.8959 5.77541 23.8959C5.78221 23.8959 5.78901 23.8959 5.79581 23.8959C5.80261 23.8959 5.80941 23.8959 5.81621 23.8959C5.82301 23.8959 5.82982 23.8959 5.83662 23.8959C5.84343 23.8959 5.85023 23.8959 5.85704 23.8959C5.86385 23.8959 5.87066 23.8959 5.87747 23.8959C5.88428 23.8959 5.89109 23.8959 5.8979 23.8959C5.90471 23.8959 5.91152 23.8959 5.91834 23.8959C5.92515 23.8959 5.93197 23.8959 5.93878 23.8959C5.9456 23.8959 5.95242 23.8959 5.95924 23.8959C5.96605 23.8959 5.97287 23.8959 5.9797 23.8959C5.98652 23.8959 5.99334 23.8959 6.00016 23.8959C6.00698 23.8959 6.01381 23.8959 6.02063 23.8959C6.02745 23.8959 6.03428 23.8959 6.04111 23.8959C6.04793 23.8959 6.05476 23.8959 6.06159 23.8959C6.06842 23.8959 6.07525 23.8959 6.08208 23.8959C6.08891 23.8959 6.09574 23.8959 6.10257 23.8959C6.1094 23.8959 6.11623 23.8959 6.12306 23.8959C6.1299 23.8959 6.13673 23.8959 6.14357 23.8959C6.1504 23.8959 6.15724 23.8959 6.16407 23.8959C6.17091 23.8959 6.17775 23.8959 6.18458 23.8959C6.19142 23.8959 6.19826 23.8959 6.2051 23.8959C6.21194 23.8959 6.21878 23.8959 6.22562 23.8959C6.23246 23.8959 6.2393 23.8959 6.24614 23.8959C6.25298 23.8959 6.25982 23.8959 6.26666 23.8959C6.27351 23.8959 6.28035 23.8959 6.28719 23.8959C6.29404 23.8959 6.30088 23.8959 6.30772 23.8959C6.31457 23.8959 6.32141 23.8959 6.32826 23.8959C6.3351 23.8959 6.34195 23.8959 6.3488 23.8959C6.35564 23.8959 6.36249 23.8959 6.36934 23.8959C6.37618 23.8959 6.38303 23.8959 6.38988 23.8959C6.39673 23.8959 6.40357 23.8959 6.41042 23.8959C6.41727 23.8959 6.42412 23.8959 6.43097 23.8959C6.43782 23.8959 6.44467 23.8959 6.45152 23.8959C6.45837 23.8959 6.46522 23.8959 6.47207 23.8959C6.47892 23.8959 6.48577 23.8959 6.49262 23.8959C6.49947 23.8959 6.50632 23.8959 6.51317 23.8959C6.52002 23.8959 6.52687 23.8959 6.53372 23.8959C6.54057 23.8959 6.54742 23.8959 6.55428 23.8959C6.56113 23.8959 6.56798 23.8959 6.57483 23.8959C6.58168 23.8959 6.58853 23.8959 6.59538 23.8959C6.60224 23.8959 6.60909 23.8959 6.61594 23.8959C6.62279 23.8959 6.62964 23.8959 6.63649 23.8959C6.64334 23.8959 6.6502 23.8959 6.65705 23.8959C6.6639 23.8959 6.67075 23.8959 6.6776 23.8959C6.68445 23.8959 6.6913 23.8959 6.69815 23.8959C6.705 23.8959 6.71186 23.8959 6.71871 23.8959C6.72556 23.8959 6.73241 23.8959 6.73926 23.8959C6.74611 23.8959 6.75296 23.8959 6.75981 23.8959C6.76666 23.8959 6.77351 23.8959 6.78035 23.8959C6.7872 23.8959 6.79405 23.8959 6.8009 23.8959C6.80775 23.8959 6.8146 23.8959 6.82145 23.8959C6.82829 23.8959 6.83514 23.8959 6.84199 23.8959C6.84884 23.8959 6.85568 23.8959 6.86253 23.8959C6.86938 23.8959 6.87622 23.8959 6.88307 23.8959C6.88991 23.8959 6.89676 23.8959 6.9036 23.8959C6.91045 23.8959 6.91729 23.8959 6.92414 23.8959C6.93098 23.8959 6.93782 23.8959 6.94466 23.8959C6.95151 23.8959 6.95835 23.8959 6.96519 23.8959C6.97203 23.8959 6.97887 23.8959 6.98571 23.8959C6.99255 23.8959 6.99939 23.8959 7.00623 23.8959C7.01307 23.8959 7.01991 23.8959 7.02675 23.8959C7.03359 23.8959 7.04042 23.8959 7.04726 23.8959C7.0541 23.8959 7.06093 23.8959 7.06777 23.8959C7.0746 23.8959 7.08144 23.8959 7.08827 23.8959C7.0951 23.8959 7.10194 23.8959 7.10877 23.8959C7.1156 23.8959 7.12243 23.8959 7.12926 23.8959C7.13609 23.8959 7.14292 23.8959 7.14975 23.8959C7.15658 23.8959 7.1634 23.8959 7.17023 23.8959C7.17706 23.8959 7.18388 23.8959 7.19071 23.8959C7.19753 23.8959 7.20436 23.8959 7.21118 23.8959C7.218 23.8959 7.22483 23.8959 7.23165 23.8959C7.23847 23.8959 7.24529 23.8959 7.25211 23.8959C7.25893 23.8959 7.26574 23.8959 7.27256 23.8959C7.27938 23.8959 7.28619 23.8959 7.29301 23.8959C7.29982 23.8959 7.30664 23.8959 7.31345 23.8959C7.32026 23.8959 7.32707 23.8959 7.33388 23.8959C7.34069 23.8959 7.3475 23.8959 7.35431 23.8959C7.36112 23.8959 7.36792 23.8959 7.37473 23.8959C7.38154 23.8959 7.38834 23.8959 7.39514 23.8959C7.40195 23.8959 7.40875 23.8959 7.41555 23.8959C7.42235 23.8959 7.42915 23.8959 7.43594 23.8959C7.44274 23.8959 7.44954 23.8959 7.45633 23.8959C7.46313 23.8959 7.46992 23.8959 7.47671 23.8959C7.48351 23.8959 7.4903 23.8959 7.49709 23.8959C7.50388 23.8959 7.51066 23.8959 7.51745 23.8959C7.52424 23.8959 7.53102 23.8959 7.53781 23.8959C7.54459 23.8959 7.55137 23.8959 7.55815 23.8959C7.56493 23.8959 7.57171 23.8959 7.57849 23.8959C7.58527 23.8959 7.59204 23.8959 7.59882 23.8959C7.60559 23.8959 7.61236 23.8959 7.61913 23.8959C7.62591 23.8959 7.63267 23.8959 7.63944 23.8959C7.64621 23.8959 7.65298 23.8959 7.65974 23.8959C7.6665 23.8959 7.67327 23.8959 7.68003 23.8959C7.68679 23.8959 7.69355 23.8959 7.70031 23.8959C7.70706 23.8959 7.71382 23.8959 7.72057 23.8959C7.72733 23.8959 7.73408 23.8959 7.74083 23.8959C7.74758 23.8959 7.75433 23.8959 7.76107 23.8959C7.76782 23.8959 7.77457 23.8959 7.78131 23.8959C7.78805 23.8959 7.79479 23.8959 7.80153 23.8959C7.80827 23.8959 7.81501 23.8959 7.82174 23.8959C7.82848 23.8959 7.83521 23.8959 7.84194 23.8959C7.84867 23.8959 7.8554 23.8959 7.86213 23.8959C7.86886 23.8959 7.87558 23.8959 7.88231 23.8959C7.88903 23.8959 7.89575 23.8959 7.90247 23.8959C7.90919 23.8959 7.9159 23.8959 7.92262 23.8959C7.92933 23.8959 7.93605 23.8959 7.94276 23.8959C7.94947 23.8959 7.95618 23.8959 7.96288 23.8959C7.96959 23.8959 7.97629 23.8959 7.98299 23.8959C7.98969 23.8959 7.99639 23.8959 8.00309 23.8959C8.00979 23.8959 8.01648 23.8959 8.02318 23.8959C8.02987 23.8959 8.03656 23.8959 8.04325 23.8959C8.04994 23.8959 8.05662 23.8959 8.0633 23.8959C8.06999 23.8959 8.07667 23.8959 8.08335 23.8959C8.09003 23.8959 8.0967 23.8959 8.10338 23.8959C8.11005 23.8959 8.11672 23.8959 8.12339 23.8959C8.13006 23.8959 8.13673 23.8959 8.14339 23.8959C8.15005 23.8959 8.15672 23.8959 8.16337 23.8959C8.17003 23.8959 8.17669 23.8959 8.18334 23.8959C8.19 23.8959 8.19665 23.8959 8.2033 23.8959C8.20995 23.8959 8.21659 23.8959 8.22324 23.8959C8.22988 23.8959 8.23652 23.8959 8.24316 23.8959C8.2498 23.8959 8.25643 23.8959 8.26307 23.8959C8.2697 23.8959 8.27633 23.8959 8.28296 23.8959C8.28958 23.8959 8.29621 23.8959 8.30283 23.8959C8.30945 23.8959 8.31607 23.8959 8.32269 23.8959C8.32931 23.8959 8.33592 23.8959 8.34253 23.8959C8.34914 23.8959 8.35575 23.8959 8.36236 23.8959C8.36896 23.8959 8.37556 23.8959 8.38216 23.8959C8.38876 23.8959 8.39536 23.8959 8.40195 23.8959C8.40855 23.8959 8.41514 23.8959 8.42172 23.8959C8.42831 23.8959 8.4349 23.8959 8.44148 23.8959C8.44806 23.8959 8.45464 23.8959 8.46122 23.8959C8.46779 23.8959 8.47437 23.8959 8.48094 23.8959C8.48751 23.8959 8.49407 23.8959 8.50064 23.8959C8.5072 23.8959 8.51376 23.8959 8.52032 23.8959C8.52688 23.8959 8.53343 23.8959 8.53998 23.8959C8.54653 23.8959 8.55308 23.8959 8.55963 23.8959C8.56617 23.8959 8.57271 23.8959 8.57925 23.8959C8.58579 23.8959 8.59233 23.8959 8.59886 23.8959C8.60539 23.8959 8.61192 23.8959 8.61844 23.8959C8.62497 23.8959 8.63149 23.8959 8.63801 23.8959C8.64453 23.8959 8.65105 23.8959 8.65756 23.8959C8.66407 23.8959 8.67058 23.8959 8.67709 23.8959C8.68359 23.8959 8.69009 23.8959 8.69659 23.8959C8.70309 23.8959 8.70959 23.8959 8.71608 23.8959C8.72257 23.8959 8.72906 23.8959 8.73554 23.8959C8.74203 23.8959 8.74851 23.8959 8.75499 23.8959C8.76147 23.8959 8.76794 23.8959 8.77441 23.8959C8.78088 23.8959 8.78735 23.8959 8.79382 23.8959C8.80028 23.8959 8.80674 23.8959 8.8132 23.8959C8.81965 23.8959 8.82611 23.8959 8.83256 23.8959C8.83901 23.8959 8.84545 23.8959 8.85189 23.8959C8.85834 23.8959 8.86477 23.8959 8.87121 23.8959C8.87764 23.8959 8.88407 23.8959 8.8905 23.8959C8.89693 23.8959 8.90335 23.8959 8.90977 23.8959C8.91619 23.8959 8.92261 23.8959 8.92902 23.8959C8.93543 23.8959 8.94184 23.8959 8.94825 23.8959C8.95465 23.8959 8.96105 23.8959 8.96745 23.8959C8.97385 23.8959 8.98024 23.8959 8.98663 23.8959C8.99302 23.8959 8.9994 23.8959 9.00578 23.8959C9.01216 23.8959 9.01854 23.8959 9.02492 23.8959C9.03129 23.8959 9.03766 23.8959 9.04402 23.8959C9.05039 23.8959 9.05675 23.8959 9.06311 23.8959C9.06947 23.8959 9.07582 23.8959 9.08217 23.8959C9.08852 23.8959 9.09486 23.8959 9.1012 23.8959C9.10754 23.8959 9.11388 23.8959 9.12021 23.8959C9.12655 23.8959 9.13288 23.8959 9.1392 23.8959C9.14552 23.8959 9.15184 23.8959 9.15816 23.8959C9.16448 23.8959 9.17079 23.8959 9.1771 23.8959C9.1834 23.8959 9.18971 23.8959 9.19601 23.8959C9.20231 23.8959 9.2086 23.8959 9.21489 23.8959C9.22118 23.8959 9.22747 23.8959 9.23375 23.8959C9.24003 23.8959 9.24631 23.8959 9.25258 23.8959C9.25886 23.8959 9.26513 23.8959 9.27139 23.8959C9.27766 23.8959 9.28392 23.8959 9.29017 23.8959C9.29643 23.8959 9.30268 23.8959 9.30893 23.8959C9.31517 23.8959 9.32141 23.8959 9.32765 23.8959C9.33389 23.8959 9.34012 23.8959 9.34635 23.8959C9.35258 23.8959 9.35881 23.8959 9.36503 23.8959C9.37124 23.8959 9.37746 23.8959 9.38367 23.8959C9.38988 23.8959 9.39609 23.8959 9.40229 23.8959C9.40849 23.8959 9.41469 23.8959 9.42088 23.8959C9.42707 23.8959 9.43326 23.8959 9.43944 23.8959C9.44562 23.8959 9.4518 23.8959 9.45797 23.8959C9.46415 23.8959 9.47032 23.8959 9.47648 23.8959C9.48264 23.8959 9.4888 23.8959 9.49496 23.8959C9.50111 23.8959 9.50726 23.8959 9.5134 23.8959C9.51955 23.8959 9.52569 23.8959 9.53182 23.8959C9.53796 23.8959 9.54409 23.8959 9.55021 23.8959C9.55634 23.8959 9.56246 23.8959 9.56857 23.8959C9.57469 23.8959 9.5808 23.8959 9.58691 23.8959C9.59301 23.8959 9.59911 23.8959 9.60521 23.8959C9.6113 23.8959 9.61739 23.8959 9.62348 23.8959C9.62956 23.8959 9.63564 23.8959 9.64172 23.8959C9.64779 23.8959 9.65386 23.8959 9.65993 23.8959C9.666 23.8959 9.67206 23.8959 9.67811 23.8959C9.68417 23.8959 9.69022 23.8959 9.69626 23.8959C9.7023 23.8959 9.70834 23.8959 9.71438 23.8959C9.72041 23.8959 9.72644 23.8959 9.73247 23.8959C9.73849 23.8959 9.74451 23.8959 9.75052 23.8959C9.75654 23.8959 9.76254 23.8959 9.76855 23.8959C9.77455 23.8959 9.78055 23.8959 9.78654 23.8959C9.79253 23.8959 9.79852 23.8959 9.8045 23.8959C9.81048 23.8959 9.81646 23.8959 9.82243 23.8959C9.8284 23.8959 9.83436 23.8959 9.84033 23.8959C9.84628 23.8959 9.85224 23.8959 9.85819 23.8959C9.86414 23.8959 9.87008 23.8959 9.87602 23.8959C9.88196 23.8959 9.88789 23.8959 9.89382 23.8959C9.89974 23.8959 9.90567 23.8959 9.91158 23.8959C9.9175 23.8959 9.92341 23.8959 9.92931 23.8959C9.93522 23.8959 9.94112 23.8959 9.94701 23.8959C9.95291 23.8959 9.95879 23.8959 9.96468 23.8959C9.97056 23.8959 9.97644 23.8959 9.98231 23.8959C9.98818 23.8959 9.99404 23.8959 9.9999 23.8959C10.0058 23.8959 10.0116 23.8959 10.0175 23.8959C10.0233 23.8959 10.0292 23.8959 10.035 23.8959C10.0408 23.8959 10.0467 23.8959 10.0525 23.8959C10.0583 23.8959 10.0641 23.8959 10.0699 23.8959C10.0758 23.8959 10.0816 23.8959 10.0874 23.8959C10.0932 23.8959 10.099 23.8959 10.1048 23.8959C10.1105 23.8959 10.1163 23.8959 10.1221 23.8959C10.1279 23.8959 10.1337 23.8959 10.1394 23.8959C10.1452 23.8959 10.1509 23.8959 10.1567 23.8959C10.1625 23.8959 10.1682 23.8959 10.1739 23.8959C10.1797 23.8959 10.1854 23.8959 10.1912 23.8959C10.1969 23.8959 10.2026 23.8959 10.2083 23.8959C10.214 23.8959 10.2198 23.8959 10.2255 23.8959C10.2312 23.8959 10.2369 23.8959 10.2426 23.8959C10.2483 23.8959 10.2539 23.8959 10.2596 23.8959C10.2653 23.8959 10.271 23.8959 10.2766 23.8959C10.2823 23.8959 10.288 23.8959 10.2936 23.8959C10.2993 23.8959 10.3049 23.8959 10.3106 23.8959C10.3162 23.8959 10.3219 23.8959 10.3275 23.8959C10.3331 23.8959 10.3387 23.8959 10.3444 23.8959C10.35 23.8959 10.3556 23.8959 10.3612 23.8959C10.3668 23.8959 10.3724 23.8959 10.378 23.8959C10.3836 23.8959 10.3892 23.8959 10.3947 23.8959C10.4003 23.8959 10.4059 23.8959 10.4115 23.8959C10.417 23.8959 10.4226 23.8959 10.4281 23.8959C10.4337 23.8959 10.4392 23.8959 10.4448 23.8959C10.4503 23.8959 10.4559 23.8959 10.4614 23.8959C10.4669 23.8959 10.4724 23.8959 10.4779 23.8959C10.4835 23.8959 10.489 23.8959 10.4945 23.8959C10.5 23.8959 10.5055 23.8959 10.5109 23.8959C10.5164 23.8959 10.5219 23.8959 10.5274 23.8959C10.5329 23.8959 10.5383 23.8959 10.5438 23.8959C10.5492 23.8959 10.5547 23.8959 10.5601 23.8959C10.5656 23.8959 10.571 23.8959 10.5765 23.8959C10.5819 23.8959 10.5873 23.8959 10.5927 23.8959C10.5982 23.8959 10.6036 23.8959 10.609 23.8959C10.6144 23.8959 10.6198 23.8959 10.6252 23.8959C10.6306 23.8959 10.636 23.8959 10.6413 23.8959C10.6467 23.8959 10.6521 23.8959 10.6574 23.8959C10.6628 23.8959 10.6682 23.8959 10.6735 23.8959C10.6789 23.8959 10.6842 23.8959 10.6895 23.8959C10.6949 23.8959 10.7002 23.8959 10.7055 23.8959C10.7108 23.8959 10.7162 23.8959 10.7215 23.8959C10.7268 23.8959 10.7321 23.8959 10.7374 23.8959C10.7427 23.8959 10.7479 23.8959 10.7532 23.8959C10.7585 23.8959 10.7638 23.8959 10.769 23.8959C10.7743 23.8959 10.7796 23.8959 10.7848 23.8959C10.79 23.8959 10.7953 23.8959 10.8005 23.8959C10.8058 23.8959 10.811 23.8959 10.8162 23.8959C10.8214 23.8959 10.8266 23.8959 10.8318 23.8959C10.8371 23.8959 10.8422 23.8959 10.8474 23.8959C10.8526 23.8959 10.8578 23.8959 10.863 23.8959C10.8682 23.8959 10.8733 23.8959 10.8785 23.8959C10.8837 23.8959 10.8888 23.8959 10.894 23.8959C10.8991 23.8959 10.9042 23.8959 10.9094 23.8959C10.9145 23.8959 10.9196 23.8959 10.9247 23.8959C10.9299 23.8959 10.935 23.8959 10.9401 23.8959C10.9452 23.8959 10.9503 23.8959 10.9553 23.8959C10.9604 23.8959 10.9655 23.8959 10.9706 23.8959C10.9756 23.8959 10.9807 23.8959 10.9858 23.8959C10.9908 23.8959 10.9959 23.8959 11.0009 23.8959C11.0059 23.8959 11.011 23.8959 11.016 23.8959C11.021 23.8959 11.026 23.8959 11.031 23.8959C11.0361 23.8959 11.0411 23.8959 11.046 23.8959C11.051 23.8959 11.056 23.8959 11.061 23.8959C11.066 23.8959 11.0709 23.8959 11.0759 23.8959C11.0809 23.8959 11.0858 23.8959 11.0908 23.8959C11.0957 23.8959 11.1006 23.8959 11.1056 23.8959C11.1105 23.8959 11.1154 23.8959 11.1203 23.8959C11.1253 23.8959 11.1302 23.8959 11.1351 23.8959C11.14 23.8959 11.1448 23.8959 11.1497 23.8959C11.1546 23.8959 11.1595 23.8959 11.1643 23.8959C11.1692 23.8959 11.1741 23.8959 11.1789 23.8959C11.1838 23.8959 11.1886 23.8959 11.1934 23.8959C11.1983 23.8959 11.2031 23.8959 11.2079 23.8959C11.2127 23.8959 11.2175 23.8959 11.2223 23.8959C11.2271 23.8959 11.2319 23.8959 11.2367 23.8959C11.2415 23.8959 11.2463 23.8959 11.251 23.8959C11.2558 23.8959 11.2606 23.8959 11.2653 23.8959C11.2701 23.8959 11.2748 23.8959 11.2795 23.8959C11.2843 23.8959 11.289 23.8959 11.2937 23.8959C11.2984 23.8959 11.3031 23.8959 11.3078 23.8959C11.3125 23.8959 11.3172 23.8959 11.3219 23.8959C11.3266 23.8959 11.3313 23.8959 11.3359 23.8959C11.3406 23.8959 11.3453 23.8959 11.3499 23.8959C11.3546 23.8959 11.3592 23.8959 11.3638 23.8959C11.3685 23.8959 11.3731 23.8959 11.3777 23.8959C11.3823 23.8959 11.3869 23.8959 11.3915 23.8959C11.3961 23.8959 11.4007 23.8959 11.4053 23.8959C11.4099 23.8959 11.4144 23.8959 11.419 23.8959C11.4236 23.8959 11.4281 23.8959 11.4327 23.8959C11.4372 23.8959 11.4417 23.8959 11.4463 23.8959C11.4508 23.8959 11.4553 23.8959 11.4598 23.8959C11.4643 23.8959 11.4688 23.8959 11.4733 23.8959C11.4778 23.8959 11.4823 23.8959 11.4868 23.8959C11.4913 23.8959 11.4957 23.8959 11.5002 23.8959C11.5046 23.8959 11.5091 23.8959 11.5135 23.8959C11.518 23.8959 11.5224 23.8959 11.5268 23.8959C11.5312 23.8959 11.5357 23.8959 11.5401 23.8959C11.5445 23.8959 11.5489 23.8959 11.5533 23.8959C11.5576 23.8959 11.562 23.8959 11.5664 23.8959C11.5707 23.8959 11.5751 23.8959 11.5795 23.8959C11.5838 23.8959 11.5881 23.8959 11.5925 23.8959C11.5968 23.8959 11.6011 23.8959 11.6054 23.8959C11.6098 23.8959 11.6141 23.8959 11.6184 23.8959C11.6227 23.8959 11.6269 23.8959 11.6312 23.8959C11.6355 23.8959 11.6398 23.8959 11.644 23.8959C11.6483 23.8959 11.6525 23.8959 11.6568 23.8959C11.661 23.8959 11.6652 23.8959 11.6695 23.8959C11.6737 23.8959 11.6779 23.8959 11.6821 23.8959C11.6863 23.8959 11.6905 23.8959 11.6947 23.8959C11.6989 23.8959 11.703 23.8959 11.7072 23.8959C11.7114 23.8959 11.7155 23.8959 11.7197 23.8959C11.7238 23.8959 11.7279 23.8959 11.7321 23.8959C11.7362 23.8959 11.7403 23.8959 11.7444 23.8959C11.7485 23.8959 11.7526 23.8959 11.7567 23.8959C11.7608 23.8959 11.7649 23.8959 11.769 23.8959C11.773 23.8959 11.7771 23.8959 11.7811 23.8959C11.7852 23.8959 11.7892 23.8959 11.7933 23.8959C11.7973 23.8959 11.8013 23.8959 11.8053 23.8959C11.8093 23.8959 11.8133 23.8959 11.8173 23.8959C11.8213 23.8959 11.8253 23.8959 11.8293 23.8959C11.8332 23.8959 11.8372 23.8959 11.8412 23.8959C11.8451 23.8959 11.8491 23.8959 11.853 23.8959C11.8569 23.8959 11.8609 23.8959 11.8648 23.8959C11.8687 23.8959 11.8726 23.8959 11.8765 23.8959C11.8804 23.8959 11.8843 23.8959 11.8881 23.8959C11.892 23.8959 11.8959 23.8959 11.8997 23.8959C11.9036 23.8959 11.9074 23.8959 11.9113 23.8959C11.9151 23.8959 11.9189 23.8959 11.9227 23.8959C11.9266 23.8959 11.9304 23.8959 11.9342 23.8959C11.938 23.8959 11.9417 23.8959 11.9455 23.8959C11.9493 23.8959 11.9531 23.8959 11.9568 23.8959C11.9606 23.8959 11.9643 23.8959 11.968 23.8959C11.9718 23.8959 11.9755 23.8959 11.9792 23.8959C11.9829 23.8959 11.9866 23.8959 11.9903 23.8959C11.994 23.8959 11.9977 23.8959 12.0014 23.8959C12.0051 23.8959 12.0087 23.8959 12.0124 23.8959C12.016 23.8959 12.0197 23.8959 12.0233 23.8959C12.0269 23.8959 12.0306 23.8959 12.0342 23.8959C12.0378 23.8959 12.0414 23.8959 12.045 23.8959C12.0486 23.8959 12.0521 23.8959 12.0557 23.8959C12.0593 23.8959 12.0628 23.8959 12.0664 23.8959C12.0699 23.8959 12.0735 23.8959 12.077 23.8959C12.0805 23.8959 12.0841 23.8959 12.0876 23.8959C12.0911 23.8959 12.0946 23.8959 12.0981 23.8959C12.1015 23.8959 12.105 23.8959 12.1085 23.8959C12.1119 23.8959 12.1154 23.8959 12.1188 23.8959C12.1223 23.8959 12.1257 23.8959 12.1291 23.8959C12.1326 23.8959 12.136 23.8959 12.1394 23.8959C12.1428 23.8959 12.1462 23.8959 12.1496 23.8959C12.1529 23.8959 12.1563 23.8959 12.1597 23.8959C12.163 23.8959 12.1664 23.8959 12.1697 23.8959C12.173 23.8959 12.1764 23.8959 12.1797 23.8959C12.183 23.8959 12.1863 23.8959 12.1896 23.8959C12.1929 23.8959 12.1962 23.8959 12.1994 23.8959C12.2027 23.8959 12.206 23.8959 12.2092 23.8959C12.2125 23.8959 12.2157 23.8959 12.219 23.8959C12.2222 23.8959 12.2254 23.8959 12.2286 23.8959C12.2318 23.8959 12.235 23.8959 12.2382 23.8959C12.2414 23.8959 12.2446 23.8959 12.2477 23.8959C12.2509 23.8959 12.254 23.8959 12.2572 23.8959C12.2603 23.8959 12.2634 23.8959 12.2666 23.8959C12.2697 23.8959 12.2728 23.8959 12.2759 23.8959C12.279 23.8959 12.2821 23.8959 12.2851 23.8959C12.2882 23.8959 12.2913 23.8959 12.2943 23.8959C12.2974 23.8959 12.3004 23.8959 12.3035 23.8959C12.3065 23.8959 12.3095 23.8959 12.3125 23.8959C12.3155 23.8959 12.3185 23.8959 12.3215 23.8959C12.3245 23.8959 12.3274 23.8959 12.3304 23.8959C12.3334 23.8959 12.3363 23.8959 12.3393 23.8959C12.3422 23.8959 12.3451 23.8959 12.348 23.8959C12.351 23.8959 12.3539 23.8959 12.3568 23.8959C12.3597 23.8959 12.3625 23.8959 12.3654 23.8959C12.3683 23.8959 12.3711 23.8959 12.374 23.8959C12.3768 23.8959 12.3797 23.8959 12.3825 23.8959C12.3853 23.8959 12.3881 23.8959 12.3909 23.8959C12.3937 23.8959 12.3965 23.8959 12.3993 23.8959C12.4021 23.8959 12.4048 23.8959 12.4076 23.8959C12.4104 23.8959 12.4131 23.8959 12.4158 23.8959C12.4186 23.8959 12.4213 23.8959 12.424 23.8959C12.4267 23.8959 12.4294 23.8959 12.4321 23.8959C12.4348 23.8959 12.4374 23.8959 12.4401 23.8959C12.4428 23.8959 12.4454 23.8959 12.4481 23.8959C12.4507 23.8959 12.4533 23.8959 12.4559 23.8959C12.4585 23.8959 12.4611 23.8959 12.4637 23.8959C12.4663 23.8959 12.4689 23.8959 12.4715 23.8959C12.474 23.8959 12.4766 23.8959 12.4791 23.8959V20.8959ZM8.11561 13.6416L10.4421 8.52302L7.71103 7.28165L5.3845 12.4002L8.11561 13.6416ZM10.1524 8.75151C10.6247 8.71064 11.2937 8.62453 11.9678 8.43555C12.6084 8.25599 13.4367 7.93467 14.0606 7.3107L11.9393 5.18938C11.8565 5.27221 11.6183 5.41789 11.1581 5.5469C10.7314 5.66649 10.2654 5.73052 9.89373 5.76268L10.1524 8.75151ZM14.0606 7.3107C14.5266 6.84476 14.9689 6.1439 15.322 5.52622C15.6968 4.87075 16.0545 4.15778 16.3374 3.56665L13.6312 2.2718C13.3641 2.83003 13.0416 3.47057 12.7176 4.03722C12.372 4.64166 12.0972 5.03152 11.9393 5.18938L14.0606 7.3107ZM3.6249 20.8959C3.39585 20.8959 3.29946 20.8337 3.18588 20.657C3.02097 20.4005 2.87237 19.9197 2.8452 19.2132C2.78953 17.7661 3.26087 16.1799 3.78328 15.4834L1.38333 13.6833C0.343148 15.0702 -0.227148 17.3903 -0.152587 19.3285C-0.11465 20.3147 0.0948355 21.3965 0.662335 22.2793C1.28117 23.2419 2.29152 23.8959 3.6249 23.8959V20.8959ZM23.1957 10.7956C23.0177 10.6275 22.9985 10.332 23.1809 10.1389L25.3618 12.1989C26.3314 11.1724 26.267 9.56988 25.2556 8.61462L23.1957 10.7956ZM10.4421 8.52302C10.3641 8.69465 10.2275 8.74501 10.1524 8.75151L9.89373 5.76268C9.00473 5.83963 8.1271 6.36627 7.71103 7.28165L10.4421 8.52302ZM17.7189 1.49662C16.4253 0.274829 14.366 0.736142 13.6312 2.2718L16.3374 3.56665C16.2278 3.79562 15.8996 3.90482 15.6591 3.67765L17.7189 1.49662Z" fill="white" mask="url(#path-1-inside-1_51_28815)"/>
<path d="M21.8541 8.85413L11.7423 18.9657C11.547 19.161 11.2845 19.2708 11.0083 19.2708H2.58301" stroke="white" stroke-width="1.5"/>
<path d="M18.7295 20.3125L23.9378 20.3125" stroke="white" stroke-width="1.5" stroke-linecap="round"/>
<path d="M21.8545 17.7084L23.9378 17.7084" stroke="white" stroke-width="1.5" stroke-linecap="round"/>
<path d="M7.79199 9.375L10.917 10.4167" stroke="white" stroke-width="1.5" stroke-linecap="round"/>
<path d="M6.75 11.4584L9.875 12.5" stroke="white" stroke-width="1.5" stroke-linecap="round"/>
</svg>
