<svg width="18" height="18" viewBox="0 0 18 18" fill="none" xmlns="http://www.w3.org/2000/svg">
<path d="M9.00046 9.75L7.50046 8.25M9.00046 9L10.5005 7.5M9.00046 15.75V6M7.36845 11.9963C7.0403 11.9771 6.72035 11.8862 6.4311 11.7301C6.14185 11.5739 5.89033 11.3563 5.69423 11.0925C5.49812 10.8287 5.36221 10.5251 5.29603 10.2031C5.22986 9.88113 5.23503 9.54856 5.3112 9.2288C5.03901 9.00255 4.82408 8.71524 4.68389 8.39024C4.5437 8.06525 4.48222 7.71175 4.50444 7.35851C4.52665 7.00526 4.63195 6.66225 4.81176 6.35739C4.99157 6.05252 5.24081 5.79441 5.5392 5.60405C5.27773 5.13954 5.18966 4.59729 5.2907 4.0739C5.39173 3.55052 5.6753 3.08001 6.09087 2.7462C6.50645 2.41238 7.02704 2.23695 7.5599 2.25117C8.09275 2.26538 8.60326 2.46831 9.00045 2.8238C9.39773 2.46887 9.90807 2.26642 10.4406 2.25249C10.9732 2.23855 11.4934 2.41403 11.9087 2.74769C12.324 3.08136 12.6074 3.55156 12.7086 4.07461C12.8097 4.59766 12.722 5.13963 12.461 5.60405C12.7595 5.79424 13.009 6.05226 13.1889 6.3571C13.3689 6.66194 13.4743 7.00498 13.4966 7.35828C13.5189 7.71158 13.4575 8.06515 13.3172 8.3902C13.177 8.71525 12.962 9.00258 12.6897 9.2288C12.7684 9.55939 12.7712 9.90353 12.6979 10.2354C12.6246 10.5672 12.4771 10.8781 12.2665 11.1448C12.0558 11.4115 11.7875 11.627 11.4816 11.7751C11.1757 11.9232 10.8403 12.0001 10.5004 12H10.5012H7.5012L7.36845 11.9963Z" stroke="#808B9A" stroke-width="1.5" stroke-linecap="round" stroke-linejoin="round"/>
</svg>
