<svg width="16" height="16" viewBox="0 0 16 16" fill="none" xmlns="http://www.w3.org/2000/svg">
<mask id="path-1-inside-1_51_28786" fill="white">
<path d="M14.2772 11.8284L13.2894 6.23764C13.085 5.08048 12.0837 4.24061 10.9087 4.24061H9.51131C9.72259 3.94029 9.84715 3.5748 9.84715 3.18053C9.84717 2.16199 9.01845 1.33331 7.99991 1.33331C6.98136 1.33331 6.15267 2.16199 6.15267 3.18055C6.15267 3.57483 6.27722 3.94032 6.4885 4.24063H5.09115C3.9161 4.24063 2.91482 5.0805 2.71037 6.23767L1.72266 11.8284C1.598 12.5341 1.79066 13.2537 2.25118 13.8027C2.71172 14.3518 3.38683 14.6667 4.10347 14.6667H11.8964C12.613 14.6667 13.2881 14.3518 13.7487 13.8028C14.2092 13.2537 14.4018 12.5341 14.2772 11.8284ZM7.99991 2.12048C8.58444 2.12048 9.05999 2.59602 9.05999 3.18055C9.05999 3.76509 8.58441 4.24063 7.99991 4.24063C7.4154 4.24063 6.93983 3.76509 6.93983 3.18055C6.93983 2.59602 7.41538 2.12048 7.99991 2.12048Z"/>
</mask>
<path d="M14.2772 11.8284L15.2619 11.6545L15.2619 11.6544L14.2772 11.8284ZM13.2894 6.23764L14.2742 6.06367L14.2742 6.06365L13.2894 6.23764ZM9.51131 4.24061L8.69344 3.66521L7.58512 5.24061H9.51131V4.24061ZM9.84715 3.18053L8.84715 3.1805V3.18053H9.84715ZM6.4885 4.24063V5.24063H8.4147L7.30638 3.66524L6.4885 4.24063ZM2.71037 6.23767L1.72562 6.06368L1.72562 6.06369L2.71037 6.23767ZM1.72266 11.8284L0.737911 11.6544L0.737908 11.6544L1.72266 11.8284ZM2.25118 13.8027L1.48501 14.4454L1.48502 14.4454L2.25118 13.8027ZM13.7487 13.8028L12.9825 13.1601L12.9825 13.1601L13.7487 13.8028ZM15.2619 11.6544L14.2742 6.06367L12.3047 6.41161L13.2924 12.0024L15.2619 11.6544ZM14.2742 6.06365C13.9853 4.42873 12.5689 3.24061 10.9087 3.24061V5.24061C11.5985 5.24061 12.1847 5.73222 12.3047 6.41163L14.2742 6.06365ZM10.9087 3.24061H9.51131V5.24061H10.9087V3.24061ZM10.3292 4.816C10.6542 4.35396 10.8471 3.78886 10.8471 3.18053H8.84715C8.84715 3.36074 8.79094 3.52663 8.69344 3.66521L10.3292 4.816ZM10.8471 3.18055C10.8472 1.60967 9.57069 0.333313 7.99991 0.333313V2.33331C8.46621 2.33331 8.84716 2.71431 8.84715 3.1805L10.8471 3.18055ZM7.99991 0.333313C6.42909 0.333313 5.15267 1.60969 5.15267 3.18055H7.15267C7.15267 2.71428 7.53364 2.33331 7.99991 2.33331V0.333313ZM5.15267 3.18055C5.15267 3.78889 5.34557 4.35399 5.67062 4.81603L7.30638 3.66524C7.20888 3.52665 7.15267 3.36076 7.15267 3.18055H5.15267ZM6.4885 3.24063H5.09115V5.24063H6.4885V3.24063ZM5.09115 3.24063C3.43093 3.24063 2.01449 4.42876 1.72562 6.06368L3.69512 6.41166C3.81516 5.73225 4.40127 5.24063 5.09115 5.24063V3.24063ZM1.72562 6.06369L0.737911 11.6544L2.70741 12.0024L3.69512 6.41164L1.72562 6.06369ZM0.737908 11.6544C0.561813 12.6513 0.834523 13.6699 1.48501 14.4454L3.01734 13.1601C2.74679 12.8375 2.63419 12.4169 2.70741 12.0024L0.737908 11.6544ZM1.48502 14.4454C2.13557 15.221 3.09119 15.6667 4.10347 15.6667V13.6667C3.68247 13.6667 3.28788 13.4826 3.01734 13.1601L1.48502 14.4454ZM4.10347 15.6667H11.8964V13.6667H4.10347V15.6667ZM11.8964 15.6667C12.9087 15.6667 13.8643 15.2209 14.5148 14.4454L12.9825 13.1601C12.712 13.4826 12.3174 13.6667 11.8964 13.6667V15.6667ZM14.5148 14.4454C15.1654 13.6698 15.438 12.6512 15.2619 11.6545L13.2924 12.0023C13.3656 12.417 13.253 12.8376 12.9825 13.1601L14.5148 14.4454ZM7.99991 3.12048C8.01544 3.12048 8.02932 3.1257 8.04204 3.13842C8.05476 3.15114 8.05999 3.16502 8.05999 3.18055H10.06C10.06 2.04374 9.13672 1.12048 7.99991 1.12048V3.12048ZM8.05999 3.18055C8.05999 3.19607 8.05476 3.20995 8.04204 3.22268C8.0293 3.23541 8.01542 3.24063 7.99991 3.24063V5.24063C9.13668 5.24063 10.06 4.31739 10.06 3.18055H8.05999ZM7.99991 3.24063C7.9844 3.24063 7.97051 3.23541 7.95778 3.22268C7.94505 3.20995 7.93983 3.19607 7.93983 3.18055H5.93983C5.93983 4.31739 6.86313 5.24063 7.99991 5.24063V3.24063ZM7.93983 3.18055C7.93983 3.16502 7.94506 3.15114 7.95778 3.13842C7.97049 3.1257 7.98437 3.12048 7.99991 3.12048V1.12048C6.86309 1.12048 5.93983 2.04374 5.93983 3.18055H7.93983Z" fill="#FFC542" mask="url(#path-1-inside-1_51_28786)"/>
<path d="M6.70594 9.45352L7.69222 8.43438C7.84339 8.27821 7.83927 8.02904 7.68308 7.87787C7.52685 7.72665 7.27768 7.73081 7.12651 7.88699L6.02352 9.02675V8.16068C6.02352 7.94331 5.84729 7.76709 5.62992 7.76709C5.41255 7.76709 5.23633 7.94331 5.23633 8.16068V10.7464C5.23633 10.9638 5.41255 11.14 5.62992 11.14C5.84729 11.14 6.02352 10.9638 6.02352 10.7464V9.88032L7.12651 11.0201C7.2037 11.0999 7.30649 11.14 7.4094 11.14C7.50795 11.14 7.60664 11.1032 7.68308 11.0292C7.83927 10.8781 7.84334 10.6289 7.69222 10.4727L6.70594 9.45352Z" fill="#FFD67B"/>
<path d="M10.3698 9.17122H9.77895C9.56158 9.17122 9.38535 9.34745 9.38535 9.56482C9.38535 9.78219 9.56158 9.95841 9.77895 9.95841H9.9697C9.9322 10.182 9.73733 10.3529 9.50324 10.3529C9.24246 10.3529 9.0303 10.1407 9.0303 9.87995V9.02729C9.0303 8.76651 9.24246 8.55435 9.50324 8.55435C9.64996 8.55435 9.78598 8.62081 9.87647 8.73674C10.0102 8.90805 10.2575 8.93857 10.4289 8.80482C10.6002 8.67104 10.6307 8.42372 10.497 8.2524C10.2563 7.94406 9.8941 7.76721 9.50327 7.76721C8.80845 7.76721 8.24316 8.3325 8.24316 9.02732V9.87997C8.24316 10.5748 8.80845 11.1401 9.50327 11.1401C10.1981 11.1401 10.7634 10.5748 10.7634 9.87997V9.56487C10.7634 9.34745 10.5872 9.17122 10.3698 9.17122Z" fill="#FFD67B"/>
</svg>
